<?xml version="1.0" encoding="UTF-8"?>
<svg id="input-cpee-1767220609313-graphcanvas-input-cpee-1767220609313" xmlns="http://www.w3.org/2000/svg" version="1.1" xmlns:x="http://www.w3.org/1999/xlink" style="display: block; width: 293.6px; height: 654.72px; background-color: rgb(255, 255, 255); margin: 0px; vertical-align: top;" height="654.7199996948243" width="293.5999981689453" data-pos-matrix="[null,[null,{&quot;x&quot;:40,&quot;width&quot;:40,&quot;type&quot;:&quot;description&quot;,&quot;label&quot;:&quot;START&quot;,&quot;eid&quot;:&quot;description&quot;}],[null,{&quot;x&quot;:40,&quot;width&quot;:133.74603271484375,&quot;type&quot;:&quot;call&quot;,&quot;label&quot;:&quot;Prepare Ingredients (a1)&quot;,&quot;eid&quot;:&quot;a1&quot;}],[null,{&quot;x&quot;:40,&quot;width&quot;:74.65269523859024,&quot;type&quot;:&quot;loop_head&quot;,&quot;label&quot;:&quot;true&quot;,&quot;eid&quot;:&quot;loop_1&quot;}],[null,null,{&quot;x&quot;:80,&quot;width&quot;:108.66666793823242,&quot;type&quot;:&quot;call&quot;,&quot;label&quot;:&quot;Make the Sauce (a3)&quot;,&quot;eid&quot;:&quot;a5&quot;}],[null,null,{&quot;x&quot;:80,&quot;width&quot;:138.12004852294922,&quot;type&quot;:&quot;call&quot;,&quot;label&quot;:&quot;Make Bechamel (a5)&quot;,&quot;eid&quot;:&quot;a13&quot;}],[null,null,{&quot;x&quot;:80,&quot;width&quot;:167.43651580810547,&quot;type&quot;:&quot;call&quot;,&quot;label&quot;:&quot;Grate Cheese (a7)&quot;,&quot;eid&quot;:&quot;a15&quot;}],[null,null,{&quot;x&quot;:80,&quot;width&quot;:135.8293685913086,&quot;type&quot;:&quot;call&quot;,&quot;label&quot;:&quot;Slice Mozzarella (a9)&quot;,&quot;eid&quot;:&quot;a17&quot;}],[null,null,{&quot;x&quot;:80,&quot;width&quot;:154.3511962890625,&quot;type&quot;:&quot;call&quot;,&quot;label&quot;:&quot;Assemble Lasagne Layer (a11)&quot;,&quot;eid&quot;:&quot;a19&quot;}],[null,null,{&quot;x&quot;:80,&quot;width&quot;:129.17262268066406,&quot;type&quot;:&quot;loop_head&quot;,&quot;label&quot;:&quot;More Layers&quot;,&quot;eid&quot;:&quot;loop_0&quot;}],[null,null,null,{&quot;x&quot;:120,&quot;width&quot;:108.66666793823242,&quot;type&quot;:&quot;call&quot;,&quot;label&quot;:&quot;Make the Sauce (a3)&quot;,&quot;eid&quot;:&quot;a5&quot;}],[null,null,null,{&quot;x&quot;:120,&quot;width&quot;:138.12004852294922,&quot;type&quot;:&quot;call&quot;,&quot;label&quot;:&quot;Make Bechamel (a5)&quot;,&quot;eid&quot;:&quot;a13&quot;}],[null,null,null,{&quot;x&quot;:120,&quot;width&quot;:167.43651580810547,&quot;type&quot;:&quot;call&quot;,&quot;label&quot;:&quot;Grate Cheese (a7)&quot;,&quot;eid&quot;:&quot;a15&quot;}],[null,null,null,{&quot;x&quot;:120,&quot;width&quot;:135.8293685913086,&quot;type&quot;:&quot;call&quot;,&quot;label&quot;:&quot;Slice Mozzarella (a9)&quot;,&quot;eid&quot;:&quot;a17&quot;}],[null,null,null,{&quot;x&quot;:120,&quot;width&quot;:154.3511962890625,&quot;type&quot;:&quot;call&quot;,&quot;label&quot;:&quot;Assemble Lasagne Layer (a11)&quot;,&quot;eid&quot;:&quot;a19&quot;}],[null,null,{&quot;x&quot;:80,&quot;width&quot;:126.32540130615234,&quot;type&quot;:&quot;call&quot;,&quot;label&quot;:&quot;Bake Lasagne (a17)&quot;,&quot;eid&quot;:&quot;a23&quot;}],[null,null,{&quot;x&quot;:80,&quot;width&quot;:40,&quot;type&quot;:&quot;choose_exclusive&quot;,&quot;eid&quot;:&quot;choose_0&quot;}],[null,null,{&quot;x&quot;:80,&quot;width&quot;:40,&quot;type&quot;:&quot;alternative&quot;},{&quot;x&quot;:120,&quot;width&quot;:70.98809623718262,&quot;type&quot;:&quot;alternative&quot;,&quot;label&quot;:&quot;Yes&quot;,&quot;eid&quot;:&quot;alternative_0&quot;},{&quot;x&quot;:244.87698364257812,&quot;width&quot;:65.94841384887695,&quot;type&quot;:&quot;alternative&quot;,&quot;label&quot;:&quot;No&quot;,&quot;eid&quot;:&quot;alternative_1&quot;}],[null,null,null,{&quot;x&quot;:120,&quot;width&quot;:124.87698364257812,&quot;type&quot;:&quot;call&quot;,&quot;label&quot;:&quot;Cool Lasagne (a21)&quot;,&quot;eid&quot;:&quot;a27&quot;}],[null,null,{&quot;x&quot;:80,&quot;width&quot;:40,&quot;type&quot;:&quot;choose_exclusive_finish&quot;,&quot;eid&quot;:&quot;choose_0&quot;}],[null,{&quot;x&quot;:40,&quot;width&quot;:40,&quot;type&quot;:&quot;end&quot;}]]" data-con-list="[{&quot;from&quot;:{&quot;row&quot;:1,&quot;col&quot;:1},&quot;to&quot;:{&quot;row&quot;:2,&quot;col&quot;:1}},{&quot;from&quot;:{&quot;row&quot;:3,&quot;col&quot;:1},&quot;to&quot;:{&quot;row&quot;:4,&quot;col&quot;:2}},{&quot;from&quot;:{&quot;row&quot;:4,&quot;col&quot;:2},&quot;to&quot;:{&quot;row&quot;:5,&quot;col&quot;:2}},{&quot;from&quot;:{&quot;row&quot;:5,&quot;col&quot;:2},&quot;to&quot;:{&quot;row&quot;:6,&quot;col&quot;:2}},{&quot;from&quot;:{&quot;row&quot;:6,&quot;col&quot;:2},&quot;to&quot;:{&quot;row&quot;:7,&quot;col&quot;:2}},{&quot;from&quot;:{&quot;row&quot;:7,&quot;col&quot;:2},&quot;to&quot;:{&quot;row&quot;:8,&quot;col&quot;:2}},{&quot;from&quot;:{&quot;row&quot;:9,&quot;col&quot;:2},&quot;to&quot;:{&quot;row&quot;:10,&quot;col&quot;:3}},{&quot;from&quot;:{&quot;row&quot;:10,&quot;col&quot;:3},&quot;to&quot;:{&quot;row&quot;:11,&quot;col&quot;:3}},{&quot;from&quot;:{&quot;row&quot;:11,&quot;col&quot;:3},&quot;to&quot;:{&quot;row&quot;:12,&quot;col&quot;:3}},{&quot;from&quot;:{&quot;row&quot;:12,&quot;col&quot;:3},&quot;to&quot;:{&quot;row&quot;:13,&quot;col&quot;:3}},{&quot;from&quot;:{&quot;row&quot;:13,&quot;col&quot;:3},&quot;to&quot;:{&quot;row&quot;:14,&quot;col&quot;:3}},{&quot;from&quot;:{&quot;row&quot;:14,&quot;col&quot;:3},&quot;to&quot;:{&quot;row&quot;:9,&quot;col&quot;:2}},{&quot;from&quot;:{&quot;row&quot;:8,&quot;col&quot;:2},&quot;to&quot;:{&quot;row&quot;:9,&quot;col&quot;:2}},{&quot;from&quot;:{&quot;row&quot;:9,&quot;col&quot;:2},&quot;to&quot;:{&quot;row&quot;:15,&quot;col&quot;:2}},{&quot;from&quot;:{&quot;row&quot;:17,&quot;col&quot;:3},&quot;to&quot;:{&quot;row&quot;:18,&quot;col&quot;:3}},{&quot;from&quot;:{&quot;row&quot;:16,&quot;col&quot;:2},&quot;to&quot;:{&quot;row&quot;:17,&quot;col&quot;:3}},{&quot;from&quot;:{&quot;row&quot;:16,&quot;col&quot;:2},&quot;to&quot;:{&quot;row&quot;:17,&quot;col&quot;:4}},{&quot;from&quot;:{&quot;row&quot;:15,&quot;col&quot;:2},&quot;to&quot;:{&quot;row&quot;:16,&quot;col&quot;:2}},{&quot;from&quot;:{&quot;row&quot;:18,&quot;col&quot;:3},&quot;to&quot;:{&quot;row&quot;:19,&quot;col&quot;:2}},{&quot;from&quot;:{&quot;row&quot;:17,&quot;col&quot;:4},&quot;to&quot;:{&quot;row&quot;:19,&quot;col&quot;:2}},{&quot;from&quot;:{&quot;row&quot;:19,&quot;col&quot;:2},&quot;to&quot;:{&quot;row&quot;:3,&quot;col&quot;:1}},{&quot;from&quot;:{&quot;row&quot;:2,&quot;col&quot;:1},&quot;to&quot;:{&quot;row&quot;:3,&quot;col&quot;:1}},{&quot;from&quot;:{&quot;row&quot;:3,&quot;col&quot;:1},&quot;to&quot;:{&quot;row&quot;:20,&quot;col&quot;:1}}]" viewBox="0 0 366.99999771118166 818.3999996185303" xmlns:xlink="http://www.w3.org/1999/xlink"><defs xmlns="http://www.w3.org/2000/svg">  <marker id="input-cpee-1767220609313-arrow" viewBox="0 0 10 10" refX="28.5" refY="5" orient="auto" markerUnits="strokeWidth" markerWidth="14" markerHeight="3.5">    <path d="m 2 2 l 6 3 l -6 3 z"/>  </marker>  <clipPath id="input-cpee-1767220609313-startclip">    <rect x="-4" y="-4" width="35" height="38"/>  </clipPath>  <clipPath id="input-cpee-1767220609313-endclip">    <rect x="20" y="-1" width="17" height="35"/>  </clipPath>  <linearGradient id="input-cpee-1767220609313-custom-gradient" x2="0.35" y2="1">    <stop offset="0%" stop-color="var(--wfadaptor-background)"/>    <stop offset="50%" stop-color="var(--custom-color)"/>    <stop offset="100%" stop-color="var(--custom-color)"/>  </linearGradient><clipPath xmlns="http://www.w3.org/2000/svg" belongs-to="element" id="input-cpee-1767220609313-ele-a1"><rect x="0" y="-1" width="86.74603271484375" height="33"/></clipPath><clipPath xmlns="http://www.w3.org/2000/svg" belongs-to="element" id="input-cpee-1767220609313-ele-a5"><rect x="0" y="-1" width="61.66666793823242" height="33"/></clipPath><clipPath xmlns="http://www.w3.org/2000/svg" belongs-to="element" id="input-cpee-1767220609313-ele-a13"><rect x="0" y="-1" width="91.12004852294922" height="33"/></clipPath><clipPath xmlns="http://www.w3.org/2000/svg" belongs-to="element" id="input-cpee-1767220609313-ele-a15"><rect x="0" y="-1" width="120.43651580810547" height="33"/></clipPath><clipPath xmlns="http://www.w3.org/2000/svg" belongs-to="element" id="input-cpee-1767220609313-ele-a17"><rect x="0" y="-1" width="88.8293685913086" height="33"/></clipPath><clipPath xmlns="http://www.w3.org/2000/svg" belongs-to="element" id="input-cpee-1767220609313-ele-a19"><rect x="0" y="-1" width="107.3511962890625" height="33"/></clipPath><clipPath xmlns="http://www.w3.org/2000/svg" belongs-to="element" id="input-cpee-1767220609313-ele-a5"><rect x="0" y="-1" width="61.66666793823242" height="33"/></clipPath><clipPath xmlns="http://www.w3.org/2000/svg" belongs-to="element" id="input-cpee-1767220609313-ele-a13"><rect x="0" y="-1" width="91.12004852294922" height="33"/></clipPath><clipPath xmlns="http://www.w3.org/2000/svg" belongs-to="element" id="input-cpee-1767220609313-ele-a15"><rect x="0" y="-1" width="120.43651580810547" height="33"/></clipPath><clipPath xmlns="http://www.w3.org/2000/svg" belongs-to="element" id="input-cpee-1767220609313-ele-a17"><rect x="0" y="-1" width="88.8293685913086" height="33"/></clipPath><clipPath xmlns="http://www.w3.org/2000/svg" belongs-to="element" id="input-cpee-1767220609313-ele-a19"><rect x="0" y="-1" width="107.3511962890625" height="33"/></clipPath><clipPath xmlns="http://www.w3.org/2000/svg" belongs-to="element" id="input-cpee-1767220609313-ele-a23"><rect x="0" y="-1" width="79.32540130615234" height="33"/></clipPath><clipPath xmlns="http://www.w3.org/2000/svg" belongs-to="element" id="input-cpee-1767220609313-ele-a27"><rect x="0" y="-1" width="77.87698364257812" height="33"/></clipPath><style type="text/css">
            /* CPEE WfAdaptor styles for standalone SVG - matching graphs.css */
            
            /* Base SVG styling */
            svg {
                font-family: 'Adwaita Sans', 'Segoe UI', system-ui, sans-serif;
                background-color: #ffffff;
            }
            
            /* Text styling - same font as rendered */
            text, tspan {
                font-family: 'Adwaita Sans', 'Segoe UI', system-ui, sans-serif;
                fill: #0f172a;
            }
            
            text.label {
                font-family: 'Adwaita Sans', 'Segoe UI', system-ui, sans-serif;
                font-size: 11px;
                fill: #0f172a;
            }
            
            text.label.standalone {
                font-size: 11px;
                stroke: #ffffff;
                fill: #0f172a;
            }
            
            /* CPEE element classes */
            .colorstyle {
                fill: #ffffff;
                stroke: #0f172a;
                stroke-width: 1px;
            }
            
            .stand {
                fill: none;
                stroke: #0f172a;
                stroke-width: 1px;
            }
            
            .standfat {
                fill: none;
                stroke: #0f172a;
                stroke-width: 3px;
            }
            
            .standline {
                stroke: #0f172a;
                stroke-width: 1px;
            }
            
            .standwithout {
                fill: #ffffff;
                stroke: #ffffff;
            }
            
            .execstyle { }
            
            .edge {
                fill: none;
                stroke: #0f172a;
                stroke-width: 1px;
                marker-end: url(#arrow);
            }
            
            .white {
                fill: #ffffff;
                stroke: none;
            }
            
            .normal {
                fill: #0f172a;
            }
            
            .activities title {
                display: none;
            }
            
            /* Shapes */
            path {
                stroke: #0f172a;
                fill: none;
            }
            
            path.edge {
                fill: none;
                stroke: #0f172a;
                stroke-width: 1px;
            }
            
            rect {
                fill: #ffffff;
                stroke: #0f172a;
            }
            
            rect.colorstyle {
                fill: #ffffff;
                stroke: #0f172a;
            }
            
            circle {
                fill: #ffffff;
                stroke: #0f172a;
            }
            
            circle.colorstyle {
                fill: #ffffff;
                stroke: #0f172a;
            }
            
            ellipse {
                fill: #ffffff;
                stroke: #0f172a;
            }
            
            polygon {
                fill: #ffffff;
                stroke: #0f172a;
            }
            
            polyline, line {
                stroke: #0f172a;
                fill: none;
            }
            
            /* Markers/arrows */
            marker * {
                fill: #0f172a;
                stroke: #0f172a;
            }
            
            /* Groups */
            g {
                fill: none;
            }
        </style></defs><path xmlns="http://www.w3.org/2000/svg" class="edge" marker-end="url(#input-cpee-1767220609313-arrow)" d="M 40,25 40,65"/><path xmlns="http://www.w3.org/2000/svg" class="edge" marker-end="url(#input-cpee-1767220609313-arrow)" d="M 40,105 54,120 80,120 80,145"/><path xmlns="http://www.w3.org/2000/svg" class="edge" marker-end="url(#input-cpee-1767220609313-arrow)" d="M 80,145 80,185"/><path xmlns="http://www.w3.org/2000/svg" class="edge" marker-end="url(#input-cpee-1767220609313-arrow)" d="M 80,185 80,225"/><path xmlns="http://www.w3.org/2000/svg" class="edge" marker-end="url(#input-cpee-1767220609313-arrow)" d="M 80,225 80,265"/><path xmlns="http://www.w3.org/2000/svg" class="edge" marker-end="url(#input-cpee-1767220609313-arrow)" d="M 80,265 80,305"/><path xmlns="http://www.w3.org/2000/svg" class="edge" marker-end="url(#input-cpee-1767220609313-arrow)" d="M 80,345 94,360 120,360 120,385"/><path xmlns="http://www.w3.org/2000/svg" class="edge" marker-end="url(#input-cpee-1767220609313-arrow)" d="M 120,385 120,425"/><path xmlns="http://www.w3.org/2000/svg" class="edge" marker-end="url(#input-cpee-1767220609313-arrow)" d="M 120,425 120,465"/><path xmlns="http://www.w3.org/2000/svg" class="edge" marker-end="url(#input-cpee-1767220609313-arrow)" d="M 120,465 120,505"/><path xmlns="http://www.w3.org/2000/svg" class="edge" marker-end="url(#input-cpee-1767220609313-arrow)" d="M 120,505 120,545"/><path xmlns="http://www.w3.org/2000/svg" class="edge" marker-end="url(#input-cpee-1767220609313-arrow)" d="M 120,545 120,564 95,564 95,375 80,345"/><path xmlns="http://www.w3.org/2000/svg" class="edge" marker-end="url(#input-cpee-1767220609313-arrow)" d="M 80,305 80,345"/><path xmlns="http://www.w3.org/2000/svg" class="edge" marker-end="url(#input-cpee-1767220609313-arrow)" d="M 80,345 80,585"/><path xmlns="http://www.w3.org/2000/svg" class="edge" marker-end="url(#input-cpee-1767220609313-arrow)" d="M 120,665 120,705"/><path xmlns="http://www.w3.org/2000/svg" class="edge" d="M 80,625 94,640 120,640 120,665"/><path xmlns="http://www.w3.org/2000/svg" class="edge" d="M 80,625 94,640 244.87698364257812,640 244.87698364257812,665"/><path xmlns="http://www.w3.org/2000/svg" class="edge" marker-end="url(#input-cpee-1767220609313-arrow)" d="M 80,585 80,625"/><path xmlns="http://www.w3.org/2000/svg" class="edge" marker-end="url(#input-cpee-1767220609313-arrow)" d="M 120,705 120,728 94,728 80,745"/><path xmlns="http://www.w3.org/2000/svg" class="edge" marker-end="url(#input-cpee-1767220609313-arrow)" d="M 244.87698364257812,665 244.87698364257812,728 94,728 80,745"/><path xmlns="http://www.w3.org/2000/svg" class="edge" marker-end="url(#input-cpee-1767220609313-arrow)" d="M 80,745 80,764 55,764 55,135 40,105"/><path xmlns="http://www.w3.org/2000/svg" class="edge" marker-end="url(#input-cpee-1767220609313-arrow)" d="M 40,65 40,105"/><path xmlns="http://www.w3.org/2000/svg" class="edge" marker-end="url(#input-cpee-1767220609313-arrow)" d="M 40,105 40,785"/><g xmlns="http://www.w3.org/2000/svg" class="group" element-id="group-description" id="input-cpee-1767220609313-group-undefined"><g xmlns="http://www.w3.org/2000/svg" class="element task-clickable" element-row="0" element-type="description" element-id="description"><g transform="translate(24.4,10.399999999999999)"><g xmlns="http://www.w3.org/2000/svg" class="activities"><title xmlns="http://www.w3.org/2000/svg">START</title><circle cx="15" cy="15" r="14" class="colorstyle execstyle stand"/></g></g></g><g xmlns="http://www.w3.org/2000/svg" class="element primitive task-clickable" element-row="1" element-type="call" element-id="a1" element-endpoint="" element-alt_id="a1"><g transform="translate(24.4,50.4)"><g xmlns="http://www.w3.org/2000/svg" class="activities"><title xmlns="http://www.w3.org/2000/svg">Prepare Ingredients (a1)</title><g class="part-start" clip-path="url(#input-cpee-1767220609313-startclip)">
    <rect x="1" y="1" width="38" height="28" rx="4" class="execstyle colorstyle stand"/>
    <path class="normal" style="fill:#000000;" d="m 21.561187,10.184155 c 0,-0.03232 0,-0.03232 0,-0.03232 C 21.076371,9.5054099 20.494591,8.9559512 19.815848,8.4388133 l 0,0.032323 C 19.266389,8.891311 18.71693,9.3438064 18.199794,9.7963017 17.973545,9.6670167 17.779619,9.5700535 17.585693,9.4730903 17.327124,9.3438064 17.068556,9.2145213 16.777665,9.1498799 16.680695,9.1175569 16.583739,9.0852339 16.486775,9.0852339 16.422135,8.3741695 16.357491,7.6631063 16.260528,6.952042 15.937318,6.887396 15.614106,6.887396 15.258574,6.855073 c -0.09697,0 -0.193926,0 -0.258569,0 -0.09697,0 -0.193925,0 -0.258568,0 -0.323211,0.032323 -0.614101,0.032323 -0.90499,0.096969 -0.09697,0.6787425 -0.161606,1.3898068 -0.193927,2.1008712 -0.129284,0 -0.226248,0.032323 -0.355532,0.064646 -0.03232,0 -0.06465,0 -0.09697,0.032323 -0.258568,0.064646 -0.517136,0.1939264 -0.775704,0.3232103 -0.226249,0.096969 -0.420175,0.1939264 -0.614102,0.3232114 -0.549458,-0.4524953 -1.066595,-0.87267 -1.616054,-1.3251654 0,0 0,0 -0.03232,-0.032323 C 10.022552,8.5357845 9.8932693,8.6327419 9.7963053,8.7297051 9.5700583,8.8913109 9.3761314,9.0852373 9.2145262,9.2791637 8.9236366,9.5377327 8.6973883,9.8609431 8.4388194,10.184155 c 0,0 0,0 0.032323,0 0.4201747,0.549459 0.87267,1.066596 1.325166,1.616054 -0.129285,0.193927 -0.258569,0.420175 -0.355533,0.614101 -0.129285,0.258569 -0.226248,0.549459 -0.2908894,0.808028 -0.064646,0.129284 -0.096969,0.258568 -0.096969,0.355531 -0.7110644,0.06465 -1.4221288,0.129285 -2.1008713,0.226248 -0.064646,0.323211 -0.096969,0.646422 -0.096969,1.001954 0,0.484816 0.032323,0.969632 0.1292839,1.422128 0.6787437,0.06465 1.3574862,0.129284 2.0685505,0.193926 0,0.129284 0.032323,0.258569 0.096969,0.355532 0.064646,0.29089 0.1616049,0.549459 0.2908899,0.840349 0.129284,0.226247 0.2262471,0.452495 0.387853,0.646421 -0.452496,0.549459 -0.9049912,1.066596 -1.3251647,1.616054 0.484816,0.678744 1.0665957,1.260523 1.7453387,1.74534 l 0,-0.03232 c 0.517137,-0.420175 1.066596,-0.87267 1.583733,-1.325166 l 0.03232,0 c 0.161605,0.09697 0.355532,0.193928 0.517136,0.290891 0.290891,0.129284 0.614101,0.258568 0.904991,0.32321 0.129284,0.03232 0.226248,0.06465 0.32321,0.09697 0.06465,0.678743 0.129285,1.389807 0.226249,2.100871 0.290889,0.03232 0.581779,0.06465 0.90499,0.06465 0.06465,0 0.258568,0 0.484817,0 0.355532,0 0.711064,-0.03232 1.066595,-0.09697 0.06465,-0.678742 0.129285,-1.389807 0.193926,-2.10087 0.09697,-0.03232 0.193927,-0.06465 0.29089,-0.09697 l 0,0 c 0.290891,-0.06464 0.549459,-0.161605 0.808028,-0.290889 0.226248,-0.09697 0.452495,-0.226248 0.678743,-0.387854 0,0.03232 0,0.03232 0.03232,0.03232 0.517137,0.452495 1.066596,0.904989 1.616054,1.325164 0.09697,-0.06465 0.193927,-0.129284 0.323212,-0.226247 0.193926,-0.161606 0.387852,-0.355532 0.549458,-0.549459 0.29089,-0.290889 0.58178,-0.614101 0.840348,-0.969633 -0.452495,-0.549459 -0.90499,-1.098917 -1.357486,-1.616054 0,-0.03232 0,-0.03232 0,-0.03232 0.09697,-0.161605 0.193927,-0.355531 0.29089,-0.549457 0.09696,-0.258569 0.226248,-0.517138 0.29089,-0.775707 0,-0.03232 0,-0.06465 0.03232,-0.06465 0,-0.129285 0.03232,-0.226248 0.06465,-0.290891 0.711065,-0.06465 1.422129,-0.129284 2.100872,-0.193926 0.06464,-0.323211 0.06464,-0.646422 0.09697,-0.969632 0,-0.09697 0,-0.193927 0,-0.29089 0,-0.06465 0,-0.161606 0,-0.258569 -0.03232,-0.323212 -0.03232,-0.646422 -0.09697,-0.969633 -0.678743,-0.06465 -1.389807,-0.129284 -2.100872,-0.193927 -0.03232,-0.09697 -0.06465,-0.193926 -0.06465,-0.290889 -0.09697,-0.29089 -0.193927,-0.58178 -0.323212,-0.872669 -0.09697,-0.193927 -0.226247,-0.420175 -0.32321,-0.614102 0.420173,-0.517136 0.872669,-1.066595 1.325164,-1.616054 z m -8.629731,2.682651 c 0.581779,-0.614101 1.292844,-0.904991 2.100871,-0.87267 0.840348,-0.03232 1.519091,0.258569 2.133192,0.87267 0.581779,0.581779 0.872669,1.292843 0.872669,2.10087 0,0.840348 -0.29089,1.519092 -0.872669,2.133192 -0.614101,0.58178 -1.292844,0.87267 -2.133192,0.87267 -0.808027,0 -1.519092,-0.29089 -2.100871,-0.87267 -0.581779,-0.6141 -0.872669,-1.292844 -0.872669,-2.133192 0,-0.808027 0.29089,-1.519091 0.872669,-2.10087 z"/>
  </g><g class="part-end" clip-path="url(#input-cpee-1767220609313-endclip)" transform="translate(92.74603271484375,0)">
    <rect x="1" y="1" width="28" height="28" rx="4" class="execstyle colorstyle stand"/>
  </g><g class="part-middle" transform="translate(27,0)" clip-path="url(#input-cpee-1767220609313-ele-a1)">
    <rect x="0" y="1" width="220" height="28" class="standwithout colorstyle"/>
    <line x1="0" y1="1" x2="220" y2="1" class="standline execstyle"/>
    <line x1="0" y1="29" x2="220" y2="29" class="standline execstyle"/>
    <text transform="translate(0,20)" class="label"><tspan xmlns="http://www.w3.org/2000/svg" x="0" dy="-8">Prepare</tspan><tspan xmlns="http://www.w3.org/2000/svg" x="0" dy="12">Ingredients (a1)</tspan></text>
  </g></g></g></g><g xmlns="http://www.w3.org/2000/svg" class="group" id="input-cpee-1767220609313-group-undefined"><g xmlns="http://www.w3.org/2000/svg" class="element primitive task-clickable" element-row="3" element-type="call" element-id="a5" element-endpoint="" element-alt_id="a3"><g transform="translate(64.4,130.4)"><g xmlns="http://www.w3.org/2000/svg" class="activities"><title xmlns="http://www.w3.org/2000/svg">Make the Sauce (a3)</title><g class="part-start" clip-path="url(#input-cpee-1767220609313-startclip)">
    <rect x="1" y="1" width="38" height="28" rx="4" class="execstyle colorstyle stand"/>
    <path class="normal" style="fill:#000000;" d="m 21.561187,10.184155 c 0,-0.03232 0,-0.03232 0,-0.03232 C 21.076371,9.5054099 20.494591,8.9559512 19.815848,8.4388133 l 0,0.032323 C 19.266389,8.891311 18.71693,9.3438064 18.199794,9.7963017 17.973545,9.6670167 17.779619,9.5700535 17.585693,9.4730903 17.327124,9.3438064 17.068556,9.2145213 16.777665,9.1498799 16.680695,9.1175569 16.583739,9.0852339 16.486775,9.0852339 16.422135,8.3741695 16.357491,7.6631063 16.260528,6.952042 15.937318,6.887396 15.614106,6.887396 15.258574,6.855073 c -0.09697,0 -0.193926,0 -0.258569,0 -0.09697,0 -0.193925,0 -0.258568,0 -0.323211,0.032323 -0.614101,0.032323 -0.90499,0.096969 -0.09697,0.6787425 -0.161606,1.3898068 -0.193927,2.1008712 -0.129284,0 -0.226248,0.032323 -0.355532,0.064646 -0.03232,0 -0.06465,0 -0.09697,0.032323 -0.258568,0.064646 -0.517136,0.1939264 -0.775704,0.3232103 -0.226249,0.096969 -0.420175,0.1939264 -0.614102,0.3232114 -0.549458,-0.4524953 -1.066595,-0.87267 -1.616054,-1.3251654 0,0 0,0 -0.03232,-0.032323 C 10.022552,8.5357845 9.8932693,8.6327419 9.7963053,8.7297051 9.5700583,8.8913109 9.3761314,9.0852373 9.2145262,9.2791637 8.9236366,9.5377327 8.6973883,9.8609431 8.4388194,10.184155 c 0,0 0,0 0.032323,0 0.4201747,0.549459 0.87267,1.066596 1.325166,1.616054 -0.129285,0.193927 -0.258569,0.420175 -0.355533,0.614101 -0.129285,0.258569 -0.226248,0.549459 -0.2908894,0.808028 -0.064646,0.129284 -0.096969,0.258568 -0.096969,0.355531 -0.7110644,0.06465 -1.4221288,0.129285 -2.1008713,0.226248 -0.064646,0.323211 -0.096969,0.646422 -0.096969,1.001954 0,0.484816 0.032323,0.969632 0.1292839,1.422128 0.6787437,0.06465 1.3574862,0.129284 2.0685505,0.193926 0,0.129284 0.032323,0.258569 0.096969,0.355532 0.064646,0.29089 0.1616049,0.549459 0.2908899,0.840349 0.129284,0.226247 0.2262471,0.452495 0.387853,0.646421 -0.452496,0.549459 -0.9049912,1.066596 -1.3251647,1.616054 0.484816,0.678744 1.0665957,1.260523 1.7453387,1.74534 l 0,-0.03232 c 0.517137,-0.420175 1.066596,-0.87267 1.583733,-1.325166 l 0.03232,0 c 0.161605,0.09697 0.355532,0.193928 0.517136,0.290891 0.290891,0.129284 0.614101,0.258568 0.904991,0.32321 0.129284,0.03232 0.226248,0.06465 0.32321,0.09697 0.06465,0.678743 0.129285,1.389807 0.226249,2.100871 0.290889,0.03232 0.581779,0.06465 0.90499,0.06465 0.06465,0 0.258568,0 0.484817,0 0.355532,0 0.711064,-0.03232 1.066595,-0.09697 0.06465,-0.678742 0.129285,-1.389807 0.193926,-2.10087 0.09697,-0.03232 0.193927,-0.06465 0.29089,-0.09697 l 0,0 c 0.290891,-0.06464 0.549459,-0.161605 0.808028,-0.290889 0.226248,-0.09697 0.452495,-0.226248 0.678743,-0.387854 0,0.03232 0,0.03232 0.03232,0.03232 0.517137,0.452495 1.066596,0.904989 1.616054,1.325164 0.09697,-0.06465 0.193927,-0.129284 0.323212,-0.226247 0.193926,-0.161606 0.387852,-0.355532 0.549458,-0.549459 0.29089,-0.290889 0.58178,-0.614101 0.840348,-0.969633 -0.452495,-0.549459 -0.90499,-1.098917 -1.357486,-1.616054 0,-0.03232 0,-0.03232 0,-0.03232 0.09697,-0.161605 0.193927,-0.355531 0.29089,-0.549457 0.09696,-0.258569 0.226248,-0.517138 0.29089,-0.775707 0,-0.03232 0,-0.06465 0.03232,-0.06465 0,-0.129285 0.03232,-0.226248 0.06465,-0.290891 0.711065,-0.06465 1.422129,-0.129284 2.100872,-0.193926 0.06464,-0.323211 0.06464,-0.646422 0.09697,-0.969632 0,-0.09697 0,-0.193927 0,-0.29089 0,-0.06465 0,-0.161606 0,-0.258569 -0.03232,-0.323212 -0.03232,-0.646422 -0.09697,-0.969633 -0.678743,-0.06465 -1.389807,-0.129284 -2.100872,-0.193927 -0.03232,-0.09697 -0.06465,-0.193926 -0.06465,-0.290889 -0.09697,-0.29089 -0.193927,-0.58178 -0.323212,-0.872669 -0.09697,-0.193927 -0.226247,-0.420175 -0.32321,-0.614102 0.420173,-0.517136 0.872669,-1.066595 1.325164,-1.616054 z m -8.629731,2.682651 c 0.581779,-0.614101 1.292844,-0.904991 2.100871,-0.87267 0.840348,-0.03232 1.519091,0.258569 2.133192,0.87267 0.581779,0.581779 0.872669,1.292843 0.872669,2.10087 0,0.840348 -0.29089,1.519092 -0.872669,2.133192 -0.614101,0.58178 -1.292844,0.87267 -2.133192,0.87267 -0.808027,0 -1.519092,-0.29089 -2.100871,-0.87267 -0.581779,-0.6141 -0.872669,-1.292844 -0.872669,-2.133192 0,-0.808027 0.29089,-1.519091 0.872669,-2.10087 z"/>
  </g><g class="part-end" clip-path="url(#input-cpee-1767220609313-endclip)" transform="translate(67.66666793823242,0)">
    <rect x="1" y="1" width="28" height="28" rx="4" class="execstyle colorstyle stand"/>
  </g><g class="part-middle" transform="translate(27,0)" clip-path="url(#input-cpee-1767220609313-ele-a5)">
    <rect x="0" y="1" width="220" height="28" class="standwithout colorstyle"/>
    <line x1="0" y1="1" x2="220" y2="1" class="standline execstyle"/>
    <line x1="0" y1="29" x2="220" y2="29" class="standline execstyle"/>
    <text transform="translate(0,20)" class="label"><tspan xmlns="http://www.w3.org/2000/svg" x="0" dy="-8">Make the</tspan><tspan xmlns="http://www.w3.org/2000/svg" x="0" dy="12">Sauce (a3)</tspan></text>
  </g></g></g></g><g xmlns="http://www.w3.org/2000/svg" class="element primitive task-clickable" element-row="4" element-type="call" element-id="a13" element-endpoint="" element-alt_id="a5"><g transform="translate(64.4,170.4)"><g xmlns="http://www.w3.org/2000/svg" class="activities"><title xmlns="http://www.w3.org/2000/svg">Make Bechamel (a5)</title><g class="part-start" clip-path="url(#input-cpee-1767220609313-startclip)">
    <rect x="1" y="1" width="38" height="28" rx="4" class="execstyle colorstyle stand"/>
    <path class="normal" style="fill:#000000;" d="m 21.561187,10.184155 c 0,-0.03232 0,-0.03232 0,-0.03232 C 21.076371,9.5054099 20.494591,8.9559512 19.815848,8.4388133 l 0,0.032323 C 19.266389,8.891311 18.71693,9.3438064 18.199794,9.7963017 17.973545,9.6670167 17.779619,9.5700535 17.585693,9.4730903 17.327124,9.3438064 17.068556,9.2145213 16.777665,9.1498799 16.680695,9.1175569 16.583739,9.0852339 16.486775,9.0852339 16.422135,8.3741695 16.357491,7.6631063 16.260528,6.952042 15.937318,6.887396 15.614106,6.887396 15.258574,6.855073 c -0.09697,0 -0.193926,0 -0.258569,0 -0.09697,0 -0.193925,0 -0.258568,0 -0.323211,0.032323 -0.614101,0.032323 -0.90499,0.096969 -0.09697,0.6787425 -0.161606,1.3898068 -0.193927,2.1008712 -0.129284,0 -0.226248,0.032323 -0.355532,0.064646 -0.03232,0 -0.06465,0 -0.09697,0.032323 -0.258568,0.064646 -0.517136,0.1939264 -0.775704,0.3232103 -0.226249,0.096969 -0.420175,0.1939264 -0.614102,0.3232114 -0.549458,-0.4524953 -1.066595,-0.87267 -1.616054,-1.3251654 0,0 0,0 -0.03232,-0.032323 C 10.022552,8.5357845 9.8932693,8.6327419 9.7963053,8.7297051 9.5700583,8.8913109 9.3761314,9.0852373 9.2145262,9.2791637 8.9236366,9.5377327 8.6973883,9.8609431 8.4388194,10.184155 c 0,0 0,0 0.032323,0 0.4201747,0.549459 0.87267,1.066596 1.325166,1.616054 -0.129285,0.193927 -0.258569,0.420175 -0.355533,0.614101 -0.129285,0.258569 -0.226248,0.549459 -0.2908894,0.808028 -0.064646,0.129284 -0.096969,0.258568 -0.096969,0.355531 -0.7110644,0.06465 -1.4221288,0.129285 -2.1008713,0.226248 -0.064646,0.323211 -0.096969,0.646422 -0.096969,1.001954 0,0.484816 0.032323,0.969632 0.1292839,1.422128 0.6787437,0.06465 1.3574862,0.129284 2.0685505,0.193926 0,0.129284 0.032323,0.258569 0.096969,0.355532 0.064646,0.29089 0.1616049,0.549459 0.2908899,0.840349 0.129284,0.226247 0.2262471,0.452495 0.387853,0.646421 -0.452496,0.549459 -0.9049912,1.066596 -1.3251647,1.616054 0.484816,0.678744 1.0665957,1.260523 1.7453387,1.74534 l 0,-0.03232 c 0.517137,-0.420175 1.066596,-0.87267 1.583733,-1.325166 l 0.03232,0 c 0.161605,0.09697 0.355532,0.193928 0.517136,0.290891 0.290891,0.129284 0.614101,0.258568 0.904991,0.32321 0.129284,0.03232 0.226248,0.06465 0.32321,0.09697 0.06465,0.678743 0.129285,1.389807 0.226249,2.100871 0.290889,0.03232 0.581779,0.06465 0.90499,0.06465 0.06465,0 0.258568,0 0.484817,0 0.355532,0 0.711064,-0.03232 1.066595,-0.09697 0.06465,-0.678742 0.129285,-1.389807 0.193926,-2.10087 0.09697,-0.03232 0.193927,-0.06465 0.29089,-0.09697 l 0,0 c 0.290891,-0.06464 0.549459,-0.161605 0.808028,-0.290889 0.226248,-0.09697 0.452495,-0.226248 0.678743,-0.387854 0,0.03232 0,0.03232 0.03232,0.03232 0.517137,0.452495 1.066596,0.904989 1.616054,1.325164 0.09697,-0.06465 0.193927,-0.129284 0.323212,-0.226247 0.193926,-0.161606 0.387852,-0.355532 0.549458,-0.549459 0.29089,-0.290889 0.58178,-0.614101 0.840348,-0.969633 -0.452495,-0.549459 -0.90499,-1.098917 -1.357486,-1.616054 0,-0.03232 0,-0.03232 0,-0.03232 0.09697,-0.161605 0.193927,-0.355531 0.29089,-0.549457 0.09696,-0.258569 0.226248,-0.517138 0.29089,-0.775707 0,-0.03232 0,-0.06465 0.03232,-0.06465 0,-0.129285 0.03232,-0.226248 0.06465,-0.290891 0.711065,-0.06465 1.422129,-0.129284 2.100872,-0.193926 0.06464,-0.323211 0.06464,-0.646422 0.09697,-0.969632 0,-0.09697 0,-0.193927 0,-0.29089 0,-0.06465 0,-0.161606 0,-0.258569 -0.03232,-0.323212 -0.03232,-0.646422 -0.09697,-0.969633 -0.678743,-0.06465 -1.389807,-0.129284 -2.100872,-0.193927 -0.03232,-0.09697 -0.06465,-0.193926 -0.06465,-0.290889 -0.09697,-0.29089 -0.193927,-0.58178 -0.323212,-0.872669 -0.09697,-0.193927 -0.226247,-0.420175 -0.32321,-0.614102 0.420173,-0.517136 0.872669,-1.066595 1.325164,-1.616054 z m -8.629731,2.682651 c 0.581779,-0.614101 1.292844,-0.904991 2.100871,-0.87267 0.840348,-0.03232 1.519091,0.258569 2.133192,0.87267 0.581779,0.581779 0.872669,1.292843 0.872669,2.10087 0,0.840348 -0.29089,1.519092 -0.872669,2.133192 -0.614101,0.58178 -1.292844,0.87267 -2.133192,0.87267 -0.808027,0 -1.519092,-0.29089 -2.100871,-0.87267 -0.581779,-0.6141 -0.872669,-1.292844 -0.872669,-2.133192 0,-0.808027 0.29089,-1.519091 0.872669,-2.10087 z"/>
  </g><g class="part-end" clip-path="url(#input-cpee-1767220609313-endclip)" transform="translate(97.12004852294922,0)">
    <rect x="1" y="1" width="28" height="28" rx="4" class="execstyle colorstyle stand"/>
  </g><g class="part-middle" transform="translate(27,0)" clip-path="url(#input-cpee-1767220609313-ele-a13)">
    <rect x="0" y="1" width="220" height="28" class="standwithout colorstyle"/>
    <line x1="0" y1="1" x2="220" y2="1" class="standline execstyle"/>
    <line x1="0" y1="29" x2="220" y2="29" class="standline execstyle"/>
    <text transform="translate(0,20)" class="label"><tspan xmlns="http://www.w3.org/2000/svg" x="0" dy="-8">Make Bechamel</tspan><tspan xmlns="http://www.w3.org/2000/svg" x="0" dy="12">(a5)</tspan></text>
  </g></g></g></g><g xmlns="http://www.w3.org/2000/svg" class="element primitive task-clickable" element-row="5" element-type="call" element-id="a15" element-endpoint="" element-alt_id="a7"><g transform="translate(64.4,210.4)"><g xmlns="http://www.w3.org/2000/svg" class="activities"><title xmlns="http://www.w3.org/2000/svg">Grate Cheese (a7)</title><g class="part-start" clip-path="url(#input-cpee-1767220609313-startclip)">
    <rect x="1" y="1" width="38" height="28" rx="4" class="execstyle colorstyle stand"/>
    <path class="normal" style="fill:#000000;" d="m 21.561187,10.184155 c 0,-0.03232 0,-0.03232 0,-0.03232 C 21.076371,9.5054099 20.494591,8.9559512 19.815848,8.4388133 l 0,0.032323 C 19.266389,8.891311 18.71693,9.3438064 18.199794,9.7963017 17.973545,9.6670167 17.779619,9.5700535 17.585693,9.4730903 17.327124,9.3438064 17.068556,9.2145213 16.777665,9.1498799 16.680695,9.1175569 16.583739,9.0852339 16.486775,9.0852339 16.422135,8.3741695 16.357491,7.6631063 16.260528,6.952042 15.937318,6.887396 15.614106,6.887396 15.258574,6.855073 c -0.09697,0 -0.193926,0 -0.258569,0 -0.09697,0 -0.193925,0 -0.258568,0 -0.323211,0.032323 -0.614101,0.032323 -0.90499,0.096969 -0.09697,0.6787425 -0.161606,1.3898068 -0.193927,2.1008712 -0.129284,0 -0.226248,0.032323 -0.355532,0.064646 -0.03232,0 -0.06465,0 -0.09697,0.032323 -0.258568,0.064646 -0.517136,0.1939264 -0.775704,0.3232103 -0.226249,0.096969 -0.420175,0.1939264 -0.614102,0.3232114 -0.549458,-0.4524953 -1.066595,-0.87267 -1.616054,-1.3251654 0,0 0,0 -0.03232,-0.032323 C 10.022552,8.5357845 9.8932693,8.6327419 9.7963053,8.7297051 9.5700583,8.8913109 9.3761314,9.0852373 9.2145262,9.2791637 8.9236366,9.5377327 8.6973883,9.8609431 8.4388194,10.184155 c 0,0 0,0 0.032323,0 0.4201747,0.549459 0.87267,1.066596 1.325166,1.616054 -0.129285,0.193927 -0.258569,0.420175 -0.355533,0.614101 -0.129285,0.258569 -0.226248,0.549459 -0.2908894,0.808028 -0.064646,0.129284 -0.096969,0.258568 -0.096969,0.355531 -0.7110644,0.06465 -1.4221288,0.129285 -2.1008713,0.226248 -0.064646,0.323211 -0.096969,0.646422 -0.096969,1.001954 0,0.484816 0.032323,0.969632 0.1292839,1.422128 0.6787437,0.06465 1.3574862,0.129284 2.0685505,0.193926 0,0.129284 0.032323,0.258569 0.096969,0.355532 0.064646,0.29089 0.1616049,0.549459 0.2908899,0.840349 0.129284,0.226247 0.2262471,0.452495 0.387853,0.646421 -0.452496,0.549459 -0.9049912,1.066596 -1.3251647,1.616054 0.484816,0.678744 1.0665957,1.260523 1.7453387,1.74534 l 0,-0.03232 c 0.517137,-0.420175 1.066596,-0.87267 1.583733,-1.325166 l 0.03232,0 c 0.161605,0.09697 0.355532,0.193928 0.517136,0.290891 0.290891,0.129284 0.614101,0.258568 0.904991,0.32321 0.129284,0.03232 0.226248,0.06465 0.32321,0.09697 0.06465,0.678743 0.129285,1.389807 0.226249,2.100871 0.290889,0.03232 0.581779,0.06465 0.90499,0.06465 0.06465,0 0.258568,0 0.484817,0 0.355532,0 0.711064,-0.03232 1.066595,-0.09697 0.06465,-0.678742 0.129285,-1.389807 0.193926,-2.10087 0.09697,-0.03232 0.193927,-0.06465 0.29089,-0.09697 l 0,0 c 0.290891,-0.06464 0.549459,-0.161605 0.808028,-0.290889 0.226248,-0.09697 0.452495,-0.226248 0.678743,-0.387854 0,0.03232 0,0.03232 0.03232,0.03232 0.517137,0.452495 1.066596,0.904989 1.616054,1.325164 0.09697,-0.06465 0.193927,-0.129284 0.323212,-0.226247 0.193926,-0.161606 0.387852,-0.355532 0.549458,-0.549459 0.29089,-0.290889 0.58178,-0.614101 0.840348,-0.969633 -0.452495,-0.549459 -0.90499,-1.098917 -1.357486,-1.616054 0,-0.03232 0,-0.03232 0,-0.03232 0.09697,-0.161605 0.193927,-0.355531 0.29089,-0.549457 0.09696,-0.258569 0.226248,-0.517138 0.29089,-0.775707 0,-0.03232 0,-0.06465 0.03232,-0.06465 0,-0.129285 0.03232,-0.226248 0.06465,-0.290891 0.711065,-0.06465 1.422129,-0.129284 2.100872,-0.193926 0.06464,-0.323211 0.06464,-0.646422 0.09697,-0.969632 0,-0.09697 0,-0.193927 0,-0.29089 0,-0.06465 0,-0.161606 0,-0.258569 -0.03232,-0.323212 -0.03232,-0.646422 -0.09697,-0.969633 -0.678743,-0.06465 -1.389807,-0.129284 -2.100872,-0.193927 -0.03232,-0.09697 -0.06465,-0.193926 -0.06465,-0.290889 -0.09697,-0.29089 -0.193927,-0.58178 -0.323212,-0.872669 -0.09697,-0.193927 -0.226247,-0.420175 -0.32321,-0.614102 0.420173,-0.517136 0.872669,-1.066595 1.325164,-1.616054 z m -8.629731,2.682651 c 0.581779,-0.614101 1.292844,-0.904991 2.100871,-0.87267 0.840348,-0.03232 1.519091,0.258569 2.133192,0.87267 0.581779,0.581779 0.872669,1.292843 0.872669,2.10087 0,0.840348 -0.29089,1.519092 -0.872669,2.133192 -0.614101,0.58178 -1.292844,0.87267 -2.133192,0.87267 -0.808027,0 -1.519092,-0.29089 -2.100871,-0.87267 -0.581779,-0.6141 -0.872669,-1.292844 -0.872669,-2.133192 0,-0.808027 0.29089,-1.519091 0.872669,-2.10087 z"/>
  </g><g class="part-end" clip-path="url(#input-cpee-1767220609313-endclip)" transform="translate(126.43651580810547,0)">
    <rect x="1" y="1" width="28" height="28" rx="4" class="execstyle colorstyle stand"/>
  </g><g class="part-middle" transform="translate(27,0)" clip-path="url(#input-cpee-1767220609313-ele-a15)">
    <rect x="0" y="1" width="220" height="28" class="standwithout colorstyle"/>
    <line x1="0" y1="1" x2="220" y2="1" class="standline execstyle"/>
    <line x1="0" y1="29" x2="220" y2="29" class="standline execstyle"/>
    <text transform="translate(0,20)" class="label">Grate Cheese (a7)</text>
  </g></g></g></g><g xmlns="http://www.w3.org/2000/svg" class="element primitive task-clickable" element-row="6" element-type="call" element-id="a17" element-endpoint="" element-alt_id="a9"><g transform="translate(64.4,250.4)"><g xmlns="http://www.w3.org/2000/svg" class="activities"><title xmlns="http://www.w3.org/2000/svg">Slice Mozzarella (a9)</title><g class="part-start" clip-path="url(#input-cpee-1767220609313-startclip)">
    <rect x="1" y="1" width="38" height="28" rx="4" class="execstyle colorstyle stand"/>
    <path class="normal" style="fill:#000000;" d="m 21.561187,10.184155 c 0,-0.03232 0,-0.03232 0,-0.03232 C 21.076371,9.5054099 20.494591,8.9559512 19.815848,8.4388133 l 0,0.032323 C 19.266389,8.891311 18.71693,9.3438064 18.199794,9.7963017 17.973545,9.6670167 17.779619,9.5700535 17.585693,9.4730903 17.327124,9.3438064 17.068556,9.2145213 16.777665,9.1498799 16.680695,9.1175569 16.583739,9.0852339 16.486775,9.0852339 16.422135,8.3741695 16.357491,7.6631063 16.260528,6.952042 15.937318,6.887396 15.614106,6.887396 15.258574,6.855073 c -0.09697,0 -0.193926,0 -0.258569,0 -0.09697,0 -0.193925,0 -0.258568,0 -0.323211,0.032323 -0.614101,0.032323 -0.90499,0.096969 -0.09697,0.6787425 -0.161606,1.3898068 -0.193927,2.1008712 -0.129284,0 -0.226248,0.032323 -0.355532,0.064646 -0.03232,0 -0.06465,0 -0.09697,0.032323 -0.258568,0.064646 -0.517136,0.1939264 -0.775704,0.3232103 -0.226249,0.096969 -0.420175,0.1939264 -0.614102,0.3232114 -0.549458,-0.4524953 -1.066595,-0.87267 -1.616054,-1.3251654 0,0 0,0 -0.03232,-0.032323 C 10.022552,8.5357845 9.8932693,8.6327419 9.7963053,8.7297051 9.5700583,8.8913109 9.3761314,9.0852373 9.2145262,9.2791637 8.9236366,9.5377327 8.6973883,9.8609431 8.4388194,10.184155 c 0,0 0,0 0.032323,0 0.4201747,0.549459 0.87267,1.066596 1.325166,1.616054 -0.129285,0.193927 -0.258569,0.420175 -0.355533,0.614101 -0.129285,0.258569 -0.226248,0.549459 -0.2908894,0.808028 -0.064646,0.129284 -0.096969,0.258568 -0.096969,0.355531 -0.7110644,0.06465 -1.4221288,0.129285 -2.1008713,0.226248 -0.064646,0.323211 -0.096969,0.646422 -0.096969,1.001954 0,0.484816 0.032323,0.969632 0.1292839,1.422128 0.6787437,0.06465 1.3574862,0.129284 2.0685505,0.193926 0,0.129284 0.032323,0.258569 0.096969,0.355532 0.064646,0.29089 0.1616049,0.549459 0.2908899,0.840349 0.129284,0.226247 0.2262471,0.452495 0.387853,0.646421 -0.452496,0.549459 -0.9049912,1.066596 -1.3251647,1.616054 0.484816,0.678744 1.0665957,1.260523 1.7453387,1.74534 l 0,-0.03232 c 0.517137,-0.420175 1.066596,-0.87267 1.583733,-1.325166 l 0.03232,0 c 0.161605,0.09697 0.355532,0.193928 0.517136,0.290891 0.290891,0.129284 0.614101,0.258568 0.904991,0.32321 0.129284,0.03232 0.226248,0.06465 0.32321,0.09697 0.06465,0.678743 0.129285,1.389807 0.226249,2.100871 0.290889,0.03232 0.581779,0.06465 0.90499,0.06465 0.06465,0 0.258568,0 0.484817,0 0.355532,0 0.711064,-0.03232 1.066595,-0.09697 0.06465,-0.678742 0.129285,-1.389807 0.193926,-2.10087 0.09697,-0.03232 0.193927,-0.06465 0.29089,-0.09697 l 0,0 c 0.290891,-0.06464 0.549459,-0.161605 0.808028,-0.290889 0.226248,-0.09697 0.452495,-0.226248 0.678743,-0.387854 0,0.03232 0,0.03232 0.03232,0.03232 0.517137,0.452495 1.066596,0.904989 1.616054,1.325164 0.09697,-0.06465 0.193927,-0.129284 0.323212,-0.226247 0.193926,-0.161606 0.387852,-0.355532 0.549458,-0.549459 0.29089,-0.290889 0.58178,-0.614101 0.840348,-0.969633 -0.452495,-0.549459 -0.90499,-1.098917 -1.357486,-1.616054 0,-0.03232 0,-0.03232 0,-0.03232 0.09697,-0.161605 0.193927,-0.355531 0.29089,-0.549457 0.09696,-0.258569 0.226248,-0.517138 0.29089,-0.775707 0,-0.03232 0,-0.06465 0.03232,-0.06465 0,-0.129285 0.03232,-0.226248 0.06465,-0.290891 0.711065,-0.06465 1.422129,-0.129284 2.100872,-0.193926 0.06464,-0.323211 0.06464,-0.646422 0.09697,-0.969632 0,-0.09697 0,-0.193927 0,-0.29089 0,-0.06465 0,-0.161606 0,-0.258569 -0.03232,-0.323212 -0.03232,-0.646422 -0.09697,-0.969633 -0.678743,-0.06465 -1.389807,-0.129284 -2.100872,-0.193927 -0.03232,-0.09697 -0.06465,-0.193926 -0.06465,-0.290889 -0.09697,-0.29089 -0.193927,-0.58178 -0.323212,-0.872669 -0.09697,-0.193927 -0.226247,-0.420175 -0.32321,-0.614102 0.420173,-0.517136 0.872669,-1.066595 1.325164,-1.616054 z m -8.629731,2.682651 c 0.581779,-0.614101 1.292844,-0.904991 2.100871,-0.87267 0.840348,-0.03232 1.519091,0.258569 2.133192,0.87267 0.581779,0.581779 0.872669,1.292843 0.872669,2.10087 0,0.840348 -0.29089,1.519092 -0.872669,2.133192 -0.614101,0.58178 -1.292844,0.87267 -2.133192,0.87267 -0.808027,0 -1.519092,-0.29089 -2.100871,-0.87267 -0.581779,-0.6141 -0.872669,-1.292844 -0.872669,-2.133192 0,-0.808027 0.29089,-1.519091 0.872669,-2.10087 z"/>
  </g><g class="part-end" clip-path="url(#input-cpee-1767220609313-endclip)" transform="translate(94.8293685913086,0)">
    <rect x="1" y="1" width="28" height="28" rx="4" class="execstyle colorstyle stand"/>
  </g><g class="part-middle" transform="translate(27,0)" clip-path="url(#input-cpee-1767220609313-ele-a17)">
    <rect x="0" y="1" width="220" height="28" class="standwithout colorstyle"/>
    <line x1="0" y1="1" x2="220" y2="1" class="standline execstyle"/>
    <line x1="0" y1="29" x2="220" y2="29" class="standline execstyle"/>
    <text transform="translate(0,20)" class="label"><tspan xmlns="http://www.w3.org/2000/svg" x="0" dy="-8">Slice</tspan><tspan xmlns="http://www.w3.org/2000/svg" x="0" dy="12">Mozzarella (a9)</tspan></text>
  </g></g></g></g><g xmlns="http://www.w3.org/2000/svg" class="element primitive task-clickable" element-row="7" element-type="call" element-id="a19" element-endpoint="" element-alt_id="a11"><g transform="translate(64.4,290.4)"><g xmlns="http://www.w3.org/2000/svg" class="activities"><title xmlns="http://www.w3.org/2000/svg">Assemble Lasagne Layer (a11)</title><g class="part-start" clip-path="url(#input-cpee-1767220609313-startclip)">
    <rect x="1" y="1" width="38" height="28" rx="4" class="execstyle colorstyle stand"/>
    <path class="normal" style="fill:#000000;" d="m 21.561187,10.184155 c 0,-0.03232 0,-0.03232 0,-0.03232 C 21.076371,9.5054099 20.494591,8.9559512 19.815848,8.4388133 l 0,0.032323 C 19.266389,8.891311 18.71693,9.3438064 18.199794,9.7963017 17.973545,9.6670167 17.779619,9.5700535 17.585693,9.4730903 17.327124,9.3438064 17.068556,9.2145213 16.777665,9.1498799 16.680695,9.1175569 16.583739,9.0852339 16.486775,9.0852339 16.422135,8.3741695 16.357491,7.6631063 16.260528,6.952042 15.937318,6.887396 15.614106,6.887396 15.258574,6.855073 c -0.09697,0 -0.193926,0 -0.258569,0 -0.09697,0 -0.193925,0 -0.258568,0 -0.323211,0.032323 -0.614101,0.032323 -0.90499,0.096969 -0.09697,0.6787425 -0.161606,1.3898068 -0.193927,2.1008712 -0.129284,0 -0.226248,0.032323 -0.355532,0.064646 -0.03232,0 -0.06465,0 -0.09697,0.032323 -0.258568,0.064646 -0.517136,0.1939264 -0.775704,0.3232103 -0.226249,0.096969 -0.420175,0.1939264 -0.614102,0.3232114 -0.549458,-0.4524953 -1.066595,-0.87267 -1.616054,-1.3251654 0,0 0,0 -0.03232,-0.032323 C 10.022552,8.5357845 9.8932693,8.6327419 9.7963053,8.7297051 9.5700583,8.8913109 9.3761314,9.0852373 9.2145262,9.2791637 8.9236366,9.5377327 8.6973883,9.8609431 8.4388194,10.184155 c 0,0 0,0 0.032323,0 0.4201747,0.549459 0.87267,1.066596 1.325166,1.616054 -0.129285,0.193927 -0.258569,0.420175 -0.355533,0.614101 -0.129285,0.258569 -0.226248,0.549459 -0.2908894,0.808028 -0.064646,0.129284 -0.096969,0.258568 -0.096969,0.355531 -0.7110644,0.06465 -1.4221288,0.129285 -2.1008713,0.226248 -0.064646,0.323211 -0.096969,0.646422 -0.096969,1.001954 0,0.484816 0.032323,0.969632 0.1292839,1.422128 0.6787437,0.06465 1.3574862,0.129284 2.0685505,0.193926 0,0.129284 0.032323,0.258569 0.096969,0.355532 0.064646,0.29089 0.1616049,0.549459 0.2908899,0.840349 0.129284,0.226247 0.2262471,0.452495 0.387853,0.646421 -0.452496,0.549459 -0.9049912,1.066596 -1.3251647,1.616054 0.484816,0.678744 1.0665957,1.260523 1.7453387,1.74534 l 0,-0.03232 c 0.517137,-0.420175 1.066596,-0.87267 1.583733,-1.325166 l 0.03232,0 c 0.161605,0.09697 0.355532,0.193928 0.517136,0.290891 0.290891,0.129284 0.614101,0.258568 0.904991,0.32321 0.129284,0.03232 0.226248,0.06465 0.32321,0.09697 0.06465,0.678743 0.129285,1.389807 0.226249,2.100871 0.290889,0.03232 0.581779,0.06465 0.90499,0.06465 0.06465,0 0.258568,0 0.484817,0 0.355532,0 0.711064,-0.03232 1.066595,-0.09697 0.06465,-0.678742 0.129285,-1.389807 0.193926,-2.10087 0.09697,-0.03232 0.193927,-0.06465 0.29089,-0.09697 l 0,0 c 0.290891,-0.06464 0.549459,-0.161605 0.808028,-0.290889 0.226248,-0.09697 0.452495,-0.226248 0.678743,-0.387854 0,0.03232 0,0.03232 0.03232,0.03232 0.517137,0.452495 1.066596,0.904989 1.616054,1.325164 0.09697,-0.06465 0.193927,-0.129284 0.323212,-0.226247 0.193926,-0.161606 0.387852,-0.355532 0.549458,-0.549459 0.29089,-0.290889 0.58178,-0.614101 0.840348,-0.969633 -0.452495,-0.549459 -0.90499,-1.098917 -1.357486,-1.616054 0,-0.03232 0,-0.03232 0,-0.03232 0.09697,-0.161605 0.193927,-0.355531 0.29089,-0.549457 0.09696,-0.258569 0.226248,-0.517138 0.29089,-0.775707 0,-0.03232 0,-0.06465 0.03232,-0.06465 0,-0.129285 0.03232,-0.226248 0.06465,-0.290891 0.711065,-0.06465 1.422129,-0.129284 2.100872,-0.193926 0.06464,-0.323211 0.06464,-0.646422 0.09697,-0.969632 0,-0.09697 0,-0.193927 0,-0.29089 0,-0.06465 0,-0.161606 0,-0.258569 -0.03232,-0.323212 -0.03232,-0.646422 -0.09697,-0.969633 -0.678743,-0.06465 -1.389807,-0.129284 -2.100872,-0.193927 -0.03232,-0.09697 -0.06465,-0.193926 -0.06465,-0.290889 -0.09697,-0.29089 -0.193927,-0.58178 -0.323212,-0.872669 -0.09697,-0.193927 -0.226247,-0.420175 -0.32321,-0.614102 0.420173,-0.517136 0.872669,-1.066595 1.325164,-1.616054 z m -8.629731,2.682651 c 0.581779,-0.614101 1.292844,-0.904991 2.100871,-0.87267 0.840348,-0.03232 1.519091,0.258569 2.133192,0.87267 0.581779,0.581779 0.872669,1.292843 0.872669,2.10087 0,0.840348 -0.29089,1.519092 -0.872669,2.133192 -0.614101,0.58178 -1.292844,0.87267 -2.133192,0.87267 -0.808027,0 -1.519092,-0.29089 -2.100871,-0.87267 -0.581779,-0.6141 -0.872669,-1.292844 -0.872669,-2.133192 0,-0.808027 0.29089,-1.519091 0.872669,-2.10087 z"/>
  </g><g class="part-end" clip-path="url(#input-cpee-1767220609313-endclip)" transform="translate(113.3511962890625,0)">
    <rect x="1" y="1" width="28" height="28" rx="4" class="execstyle colorstyle stand"/>
  </g><g class="part-middle" transform="translate(27,0)" clip-path="url(#input-cpee-1767220609313-ele-a19)">
    <rect x="0" y="1" width="220" height="28" class="standwithout colorstyle"/>
    <line x1="0" y1="1" x2="220" y2="1" class="standline execstyle"/>
    <line x1="0" y1="29" x2="220" y2="29" class="standline execstyle"/>
    <text transform="translate(0,20)" class="label"><tspan xmlns="http://www.w3.org/2000/svg" x="0" dy="-8">Assemble Lasagne</tspan><tspan xmlns="http://www.w3.org/2000/svg" x="0" dy="12">Layer (a11)</tspan></text>
  </g></g></g></g><g xmlns="http://www.w3.org/2000/svg" class="group"><g xmlns="http://www.w3.org/2000/svg" class="element primitive task-clickable" element-row="9" element-type="call" element-id="a5" element-endpoint="" element-alt_id="a3"><g transform="translate(104.4,370.4)"><g xmlns="http://www.w3.org/2000/svg" class="activities"><title xmlns="http://www.w3.org/2000/svg">Make the Sauce (a3)</title><g class="part-start" clip-path="url(#input-cpee-1767220609313-startclip)">
    <rect x="1" y="1" width="38" height="28" rx="4" class="execstyle colorstyle stand"/>
    <path class="normal" style="fill:#000000;" d="m 21.561187,10.184155 c 0,-0.03232 0,-0.03232 0,-0.03232 C 21.076371,9.5054099 20.494591,8.9559512 19.815848,8.4388133 l 0,0.032323 C 19.266389,8.891311 18.71693,9.3438064 18.199794,9.7963017 17.973545,9.6670167 17.779619,9.5700535 17.585693,9.4730903 17.327124,9.3438064 17.068556,9.2145213 16.777665,9.1498799 16.680695,9.1175569 16.583739,9.0852339 16.486775,9.0852339 16.422135,8.3741695 16.357491,7.6631063 16.260528,6.952042 15.937318,6.887396 15.614106,6.887396 15.258574,6.855073 c -0.09697,0 -0.193926,0 -0.258569,0 -0.09697,0 -0.193925,0 -0.258568,0 -0.323211,0.032323 -0.614101,0.032323 -0.90499,0.096969 -0.09697,0.6787425 -0.161606,1.3898068 -0.193927,2.1008712 -0.129284,0 -0.226248,0.032323 -0.355532,0.064646 -0.03232,0 -0.06465,0 -0.09697,0.032323 -0.258568,0.064646 -0.517136,0.1939264 -0.775704,0.3232103 -0.226249,0.096969 -0.420175,0.1939264 -0.614102,0.3232114 -0.549458,-0.4524953 -1.066595,-0.87267 -1.616054,-1.3251654 0,0 0,0 -0.03232,-0.032323 C 10.022552,8.5357845 9.8932693,8.6327419 9.7963053,8.7297051 9.5700583,8.8913109 9.3761314,9.0852373 9.2145262,9.2791637 8.9236366,9.5377327 8.6973883,9.8609431 8.4388194,10.184155 c 0,0 0,0 0.032323,0 0.4201747,0.549459 0.87267,1.066596 1.325166,1.616054 -0.129285,0.193927 -0.258569,0.420175 -0.355533,0.614101 -0.129285,0.258569 -0.226248,0.549459 -0.2908894,0.808028 -0.064646,0.129284 -0.096969,0.258568 -0.096969,0.355531 -0.7110644,0.06465 -1.4221288,0.129285 -2.1008713,0.226248 -0.064646,0.323211 -0.096969,0.646422 -0.096969,1.001954 0,0.484816 0.032323,0.969632 0.1292839,1.422128 0.6787437,0.06465 1.3574862,0.129284 2.0685505,0.193926 0,0.129284 0.032323,0.258569 0.096969,0.355532 0.064646,0.29089 0.1616049,0.549459 0.2908899,0.840349 0.129284,0.226247 0.2262471,0.452495 0.387853,0.646421 -0.452496,0.549459 -0.9049912,1.066596 -1.3251647,1.616054 0.484816,0.678744 1.0665957,1.260523 1.7453387,1.74534 l 0,-0.03232 c 0.517137,-0.420175 1.066596,-0.87267 1.583733,-1.325166 l 0.03232,0 c 0.161605,0.09697 0.355532,0.193928 0.517136,0.290891 0.290891,0.129284 0.614101,0.258568 0.904991,0.32321 0.129284,0.03232 0.226248,0.06465 0.32321,0.09697 0.06465,0.678743 0.129285,1.389807 0.226249,2.100871 0.290889,0.03232 0.581779,0.06465 0.90499,0.06465 0.06465,0 0.258568,0 0.484817,0 0.355532,0 0.711064,-0.03232 1.066595,-0.09697 0.06465,-0.678742 0.129285,-1.389807 0.193926,-2.10087 0.09697,-0.03232 0.193927,-0.06465 0.29089,-0.09697 l 0,0 c 0.290891,-0.06464 0.549459,-0.161605 0.808028,-0.290889 0.226248,-0.09697 0.452495,-0.226248 0.678743,-0.387854 0,0.03232 0,0.03232 0.03232,0.03232 0.517137,0.452495 1.066596,0.904989 1.616054,1.325164 0.09697,-0.06465 0.193927,-0.129284 0.323212,-0.226247 0.193926,-0.161606 0.387852,-0.355532 0.549458,-0.549459 0.29089,-0.290889 0.58178,-0.614101 0.840348,-0.969633 -0.452495,-0.549459 -0.90499,-1.098917 -1.357486,-1.616054 0,-0.03232 0,-0.03232 0,-0.03232 0.09697,-0.161605 0.193927,-0.355531 0.29089,-0.549457 0.09696,-0.258569 0.226248,-0.517138 0.29089,-0.775707 0,-0.03232 0,-0.06465 0.03232,-0.06465 0,-0.129285 0.03232,-0.226248 0.06465,-0.290891 0.711065,-0.06465 1.422129,-0.129284 2.100872,-0.193926 0.06464,-0.323211 0.06464,-0.646422 0.09697,-0.969632 0,-0.09697 0,-0.193927 0,-0.29089 0,-0.06465 0,-0.161606 0,-0.258569 -0.03232,-0.323212 -0.03232,-0.646422 -0.09697,-0.969633 -0.678743,-0.06465 -1.389807,-0.129284 -2.100872,-0.193927 -0.03232,-0.09697 -0.06465,-0.193926 -0.06465,-0.290889 -0.09697,-0.29089 -0.193927,-0.58178 -0.323212,-0.872669 -0.09697,-0.193927 -0.226247,-0.420175 -0.32321,-0.614102 0.420173,-0.517136 0.872669,-1.066595 1.325164,-1.616054 z m -8.629731,2.682651 c 0.581779,-0.614101 1.292844,-0.904991 2.100871,-0.87267 0.840348,-0.03232 1.519091,0.258569 2.133192,0.87267 0.581779,0.581779 0.872669,1.292843 0.872669,2.10087 0,0.840348 -0.29089,1.519092 -0.872669,2.133192 -0.614101,0.58178 -1.292844,0.87267 -2.133192,0.87267 -0.808027,0 -1.519092,-0.29089 -2.100871,-0.87267 -0.581779,-0.6141 -0.872669,-1.292844 -0.872669,-2.133192 0,-0.808027 0.29089,-1.519091 0.872669,-2.10087 z"/>
  </g><g class="part-end" clip-path="url(#input-cpee-1767220609313-endclip)" transform="translate(67.66666793823242,0)">
    <rect x="1" y="1" width="28" height="28" rx="4" class="execstyle colorstyle stand"/>
  </g><g class="part-middle" transform="translate(27,0)" clip-path="url(#input-cpee-1767220609313-ele-a5)">
    <rect x="0" y="1" width="220" height="28" class="standwithout colorstyle"/>
    <line x1="0" y1="1" x2="220" y2="1" class="standline execstyle"/>
    <line x1="0" y1="29" x2="220" y2="29" class="standline execstyle"/>
    <text transform="translate(0,20)" class="label"><tspan xmlns="http://www.w3.org/2000/svg" x="0" dy="-8">Make the</tspan><tspan xmlns="http://www.w3.org/2000/svg" x="0" dy="12">Sauce (a3)</tspan></text>
  </g></g></g></g><g xmlns="http://www.w3.org/2000/svg" class="element primitive task-clickable" element-row="10" element-type="call" element-id="a13" element-endpoint="" element-alt_id="a5"><g transform="translate(104.4,410.4)"><g xmlns="http://www.w3.org/2000/svg" class="activities"><title xmlns="http://www.w3.org/2000/svg">Make Bechamel (a5)</title><g class="part-start" clip-path="url(#input-cpee-1767220609313-startclip)">
    <rect x="1" y="1" width="38" height="28" rx="4" class="execstyle colorstyle stand"/>
    <path class="normal" style="fill:#000000;" d="m 21.561187,10.184155 c 0,-0.03232 0,-0.03232 0,-0.03232 C 21.076371,9.5054099 20.494591,8.9559512 19.815848,8.4388133 l 0,0.032323 C 19.266389,8.891311 18.71693,9.3438064 18.199794,9.7963017 17.973545,9.6670167 17.779619,9.5700535 17.585693,9.4730903 17.327124,9.3438064 17.068556,9.2145213 16.777665,9.1498799 16.680695,9.1175569 16.583739,9.0852339 16.486775,9.0852339 16.422135,8.3741695 16.357491,7.6631063 16.260528,6.952042 15.937318,6.887396 15.614106,6.887396 15.258574,6.855073 c -0.09697,0 -0.193926,0 -0.258569,0 -0.09697,0 -0.193925,0 -0.258568,0 -0.323211,0.032323 -0.614101,0.032323 -0.90499,0.096969 -0.09697,0.6787425 -0.161606,1.3898068 -0.193927,2.1008712 -0.129284,0 -0.226248,0.032323 -0.355532,0.064646 -0.03232,0 -0.06465,0 -0.09697,0.032323 -0.258568,0.064646 -0.517136,0.1939264 -0.775704,0.3232103 -0.226249,0.096969 -0.420175,0.1939264 -0.614102,0.3232114 -0.549458,-0.4524953 -1.066595,-0.87267 -1.616054,-1.3251654 0,0 0,0 -0.03232,-0.032323 C 10.022552,8.5357845 9.8932693,8.6327419 9.7963053,8.7297051 9.5700583,8.8913109 9.3761314,9.0852373 9.2145262,9.2791637 8.9236366,9.5377327 8.6973883,9.8609431 8.4388194,10.184155 c 0,0 0,0 0.032323,0 0.4201747,0.549459 0.87267,1.066596 1.325166,1.616054 -0.129285,0.193927 -0.258569,0.420175 -0.355533,0.614101 -0.129285,0.258569 -0.226248,0.549459 -0.2908894,0.808028 -0.064646,0.129284 -0.096969,0.258568 -0.096969,0.355531 -0.7110644,0.06465 -1.4221288,0.129285 -2.1008713,0.226248 -0.064646,0.323211 -0.096969,0.646422 -0.096969,1.001954 0,0.484816 0.032323,0.969632 0.1292839,1.422128 0.6787437,0.06465 1.3574862,0.129284 2.0685505,0.193926 0,0.129284 0.032323,0.258569 0.096969,0.355532 0.064646,0.29089 0.1616049,0.549459 0.2908899,0.840349 0.129284,0.226247 0.2262471,0.452495 0.387853,0.646421 -0.452496,0.549459 -0.9049912,1.066596 -1.3251647,1.616054 0.484816,0.678744 1.0665957,1.260523 1.7453387,1.74534 l 0,-0.03232 c 0.517137,-0.420175 1.066596,-0.87267 1.583733,-1.325166 l 0.03232,0 c 0.161605,0.09697 0.355532,0.193928 0.517136,0.290891 0.290891,0.129284 0.614101,0.258568 0.904991,0.32321 0.129284,0.03232 0.226248,0.06465 0.32321,0.09697 0.06465,0.678743 0.129285,1.389807 0.226249,2.100871 0.290889,0.03232 0.581779,0.06465 0.90499,0.06465 0.06465,0 0.258568,0 0.484817,0 0.355532,0 0.711064,-0.03232 1.066595,-0.09697 0.06465,-0.678742 0.129285,-1.389807 0.193926,-2.10087 0.09697,-0.03232 0.193927,-0.06465 0.29089,-0.09697 l 0,0 c 0.290891,-0.06464 0.549459,-0.161605 0.808028,-0.290889 0.226248,-0.09697 0.452495,-0.226248 0.678743,-0.387854 0,0.03232 0,0.03232 0.03232,0.03232 0.517137,0.452495 1.066596,0.904989 1.616054,1.325164 0.09697,-0.06465 0.193927,-0.129284 0.323212,-0.226247 0.193926,-0.161606 0.387852,-0.355532 0.549458,-0.549459 0.29089,-0.290889 0.58178,-0.614101 0.840348,-0.969633 -0.452495,-0.549459 -0.90499,-1.098917 -1.357486,-1.616054 0,-0.03232 0,-0.03232 0,-0.03232 0.09697,-0.161605 0.193927,-0.355531 0.29089,-0.549457 0.09696,-0.258569 0.226248,-0.517138 0.29089,-0.775707 0,-0.03232 0,-0.06465 0.03232,-0.06465 0,-0.129285 0.03232,-0.226248 0.06465,-0.290891 0.711065,-0.06465 1.422129,-0.129284 2.100872,-0.193926 0.06464,-0.323211 0.06464,-0.646422 0.09697,-0.969632 0,-0.09697 0,-0.193927 0,-0.29089 0,-0.06465 0,-0.161606 0,-0.258569 -0.03232,-0.323212 -0.03232,-0.646422 -0.09697,-0.969633 -0.678743,-0.06465 -1.389807,-0.129284 -2.100872,-0.193927 -0.03232,-0.09697 -0.06465,-0.193926 -0.06465,-0.290889 -0.09697,-0.29089 -0.193927,-0.58178 -0.323212,-0.872669 -0.09697,-0.193927 -0.226247,-0.420175 -0.32321,-0.614102 0.420173,-0.517136 0.872669,-1.066595 1.325164,-1.616054 z m -8.629731,2.682651 c 0.581779,-0.614101 1.292844,-0.904991 2.100871,-0.87267 0.840348,-0.03232 1.519091,0.258569 2.133192,0.87267 0.581779,0.581779 0.872669,1.292843 0.872669,2.10087 0,0.840348 -0.29089,1.519092 -0.872669,2.133192 -0.614101,0.58178 -1.292844,0.87267 -2.133192,0.87267 -0.808027,0 -1.519092,-0.29089 -2.100871,-0.87267 -0.581779,-0.6141 -0.872669,-1.292844 -0.872669,-2.133192 0,-0.808027 0.29089,-1.519091 0.872669,-2.10087 z"/>
  </g><g class="part-end" clip-path="url(#input-cpee-1767220609313-endclip)" transform="translate(97.12004852294922,0)">
    <rect x="1" y="1" width="28" height="28" rx="4" class="execstyle colorstyle stand"/>
  </g><g class="part-middle" transform="translate(27,0)" clip-path="url(#input-cpee-1767220609313-ele-a13)">
    <rect x="0" y="1" width="220" height="28" class="standwithout colorstyle"/>
    <line x1="0" y1="1" x2="220" y2="1" class="standline execstyle"/>
    <line x1="0" y1="29" x2="220" y2="29" class="standline execstyle"/>
    <text transform="translate(0,20)" class="label"><tspan xmlns="http://www.w3.org/2000/svg" x="0" dy="-8">Make Bechamel</tspan><tspan xmlns="http://www.w3.org/2000/svg" x="0" dy="12">(a5)</tspan></text>
  </g></g></g></g><g xmlns="http://www.w3.org/2000/svg" class="element primitive task-clickable" element-row="11" element-type="call" element-id="a15" element-endpoint="" element-alt_id="a7"><g transform="translate(104.4,450.4)"><g xmlns="http://www.w3.org/2000/svg" class="activities"><title xmlns="http://www.w3.org/2000/svg">Grate Cheese (a7)</title><g class="part-start" clip-path="url(#input-cpee-1767220609313-startclip)">
    <rect x="1" y="1" width="38" height="28" rx="4" class="execstyle colorstyle stand"/>
    <path class="normal" style="fill:#000000;" d="m 21.561187,10.184155 c 0,-0.03232 0,-0.03232 0,-0.03232 C 21.076371,9.5054099 20.494591,8.9559512 19.815848,8.4388133 l 0,0.032323 C 19.266389,8.891311 18.71693,9.3438064 18.199794,9.7963017 17.973545,9.6670167 17.779619,9.5700535 17.585693,9.4730903 17.327124,9.3438064 17.068556,9.2145213 16.777665,9.1498799 16.680695,9.1175569 16.583739,9.0852339 16.486775,9.0852339 16.422135,8.3741695 16.357491,7.6631063 16.260528,6.952042 15.937318,6.887396 15.614106,6.887396 15.258574,6.855073 c -0.09697,0 -0.193926,0 -0.258569,0 -0.09697,0 -0.193925,0 -0.258568,0 -0.323211,0.032323 -0.614101,0.032323 -0.90499,0.096969 -0.09697,0.6787425 -0.161606,1.3898068 -0.193927,2.1008712 -0.129284,0 -0.226248,0.032323 -0.355532,0.064646 -0.03232,0 -0.06465,0 -0.09697,0.032323 -0.258568,0.064646 -0.517136,0.1939264 -0.775704,0.3232103 -0.226249,0.096969 -0.420175,0.1939264 -0.614102,0.3232114 -0.549458,-0.4524953 -1.066595,-0.87267 -1.616054,-1.3251654 0,0 0,0 -0.03232,-0.032323 C 10.022552,8.5357845 9.8932693,8.6327419 9.7963053,8.7297051 9.5700583,8.8913109 9.3761314,9.0852373 9.2145262,9.2791637 8.9236366,9.5377327 8.6973883,9.8609431 8.4388194,10.184155 c 0,0 0,0 0.032323,0 0.4201747,0.549459 0.87267,1.066596 1.325166,1.616054 -0.129285,0.193927 -0.258569,0.420175 -0.355533,0.614101 -0.129285,0.258569 -0.226248,0.549459 -0.2908894,0.808028 -0.064646,0.129284 -0.096969,0.258568 -0.096969,0.355531 -0.7110644,0.06465 -1.4221288,0.129285 -2.1008713,0.226248 -0.064646,0.323211 -0.096969,0.646422 -0.096969,1.001954 0,0.484816 0.032323,0.969632 0.1292839,1.422128 0.6787437,0.06465 1.3574862,0.129284 2.0685505,0.193926 0,0.129284 0.032323,0.258569 0.096969,0.355532 0.064646,0.29089 0.1616049,0.549459 0.2908899,0.840349 0.129284,0.226247 0.2262471,0.452495 0.387853,0.646421 -0.452496,0.549459 -0.9049912,1.066596 -1.3251647,1.616054 0.484816,0.678744 1.0665957,1.260523 1.7453387,1.74534 l 0,-0.03232 c 0.517137,-0.420175 1.066596,-0.87267 1.583733,-1.325166 l 0.03232,0 c 0.161605,0.09697 0.355532,0.193928 0.517136,0.290891 0.290891,0.129284 0.614101,0.258568 0.904991,0.32321 0.129284,0.03232 0.226248,0.06465 0.32321,0.09697 0.06465,0.678743 0.129285,1.389807 0.226249,2.100871 0.290889,0.03232 0.581779,0.06465 0.90499,0.06465 0.06465,0 0.258568,0 0.484817,0 0.355532,0 0.711064,-0.03232 1.066595,-0.09697 0.06465,-0.678742 0.129285,-1.389807 0.193926,-2.10087 0.09697,-0.03232 0.193927,-0.06465 0.29089,-0.09697 l 0,0 c 0.290891,-0.06464 0.549459,-0.161605 0.808028,-0.290889 0.226248,-0.09697 0.452495,-0.226248 0.678743,-0.387854 0,0.03232 0,0.03232 0.03232,0.03232 0.517137,0.452495 1.066596,0.904989 1.616054,1.325164 0.09697,-0.06465 0.193927,-0.129284 0.323212,-0.226247 0.193926,-0.161606 0.387852,-0.355532 0.549458,-0.549459 0.29089,-0.290889 0.58178,-0.614101 0.840348,-0.969633 -0.452495,-0.549459 -0.90499,-1.098917 -1.357486,-1.616054 0,-0.03232 0,-0.03232 0,-0.03232 0.09697,-0.161605 0.193927,-0.355531 0.29089,-0.549457 0.09696,-0.258569 0.226248,-0.517138 0.29089,-0.775707 0,-0.03232 0,-0.06465 0.03232,-0.06465 0,-0.129285 0.03232,-0.226248 0.06465,-0.290891 0.711065,-0.06465 1.422129,-0.129284 2.100872,-0.193926 0.06464,-0.323211 0.06464,-0.646422 0.09697,-0.969632 0,-0.09697 0,-0.193927 0,-0.29089 0,-0.06465 0,-0.161606 0,-0.258569 -0.03232,-0.323212 -0.03232,-0.646422 -0.09697,-0.969633 -0.678743,-0.06465 -1.389807,-0.129284 -2.100872,-0.193927 -0.03232,-0.09697 -0.06465,-0.193926 -0.06465,-0.290889 -0.09697,-0.29089 -0.193927,-0.58178 -0.323212,-0.872669 -0.09697,-0.193927 -0.226247,-0.420175 -0.32321,-0.614102 0.420173,-0.517136 0.872669,-1.066595 1.325164,-1.616054 z m -8.629731,2.682651 c 0.581779,-0.614101 1.292844,-0.904991 2.100871,-0.87267 0.840348,-0.03232 1.519091,0.258569 2.133192,0.87267 0.581779,0.581779 0.872669,1.292843 0.872669,2.10087 0,0.840348 -0.29089,1.519092 -0.872669,2.133192 -0.614101,0.58178 -1.292844,0.87267 -2.133192,0.87267 -0.808027,0 -1.519092,-0.29089 -2.100871,-0.87267 -0.581779,-0.6141 -0.872669,-1.292844 -0.872669,-2.133192 0,-0.808027 0.29089,-1.519091 0.872669,-2.10087 z"/>
  </g><g class="part-end" clip-path="url(#input-cpee-1767220609313-endclip)" transform="translate(126.43651580810547,0)">
    <rect x="1" y="1" width="28" height="28" rx="4" class="execstyle colorstyle stand"/>
  </g><g class="part-middle" transform="translate(27,0)" clip-path="url(#input-cpee-1767220609313-ele-a15)">
    <rect x="0" y="1" width="220" height="28" class="standwithout colorstyle"/>
    <line x1="0" y1="1" x2="220" y2="1" class="standline execstyle"/>
    <line x1="0" y1="29" x2="220" y2="29" class="standline execstyle"/>
    <text transform="translate(0,20)" class="label">Grate Cheese (a7)</text>
  </g></g></g></g><g xmlns="http://www.w3.org/2000/svg" class="element primitive task-clickable" element-row="12" element-type="call" element-id="a17" element-endpoint="" element-alt_id="a9"><g transform="translate(104.4,490.4)"><g xmlns="http://www.w3.org/2000/svg" class="activities"><title xmlns="http://www.w3.org/2000/svg">Slice Mozzarella (a9)</title><g class="part-start" clip-path="url(#input-cpee-1767220609313-startclip)">
    <rect x="1" y="1" width="38" height="28" rx="4" class="execstyle colorstyle stand"/>
    <path class="normal" style="fill:#000000;" d="m 21.561187,10.184155 c 0,-0.03232 0,-0.03232 0,-0.03232 C 21.076371,9.5054099 20.494591,8.9559512 19.815848,8.4388133 l 0,0.032323 C 19.266389,8.891311 18.71693,9.3438064 18.199794,9.7963017 17.973545,9.6670167 17.779619,9.5700535 17.585693,9.4730903 17.327124,9.3438064 17.068556,9.2145213 16.777665,9.1498799 16.680695,9.1175569 16.583739,9.0852339 16.486775,9.0852339 16.422135,8.3741695 16.357491,7.6631063 16.260528,6.952042 15.937318,6.887396 15.614106,6.887396 15.258574,6.855073 c -0.09697,0 -0.193926,0 -0.258569,0 -0.09697,0 -0.193925,0 -0.258568,0 -0.323211,0.032323 -0.614101,0.032323 -0.90499,0.096969 -0.09697,0.6787425 -0.161606,1.3898068 -0.193927,2.1008712 -0.129284,0 -0.226248,0.032323 -0.355532,0.064646 -0.03232,0 -0.06465,0 -0.09697,0.032323 -0.258568,0.064646 -0.517136,0.1939264 -0.775704,0.3232103 -0.226249,0.096969 -0.420175,0.1939264 -0.614102,0.3232114 -0.549458,-0.4524953 -1.066595,-0.87267 -1.616054,-1.3251654 0,0 0,0 -0.03232,-0.032323 C 10.022552,8.5357845 9.8932693,8.6327419 9.7963053,8.7297051 9.5700583,8.8913109 9.3761314,9.0852373 9.2145262,9.2791637 8.9236366,9.5377327 8.6973883,9.8609431 8.4388194,10.184155 c 0,0 0,0 0.032323,0 0.4201747,0.549459 0.87267,1.066596 1.325166,1.616054 -0.129285,0.193927 -0.258569,0.420175 -0.355533,0.614101 -0.129285,0.258569 -0.226248,0.549459 -0.2908894,0.808028 -0.064646,0.129284 -0.096969,0.258568 -0.096969,0.355531 -0.7110644,0.06465 -1.4221288,0.129285 -2.1008713,0.226248 -0.064646,0.323211 -0.096969,0.646422 -0.096969,1.001954 0,0.484816 0.032323,0.969632 0.1292839,1.422128 0.6787437,0.06465 1.3574862,0.129284 2.0685505,0.193926 0,0.129284 0.032323,0.258569 0.096969,0.355532 0.064646,0.29089 0.1616049,0.549459 0.2908899,0.840349 0.129284,0.226247 0.2262471,0.452495 0.387853,0.646421 -0.452496,0.549459 -0.9049912,1.066596 -1.3251647,1.616054 0.484816,0.678744 1.0665957,1.260523 1.7453387,1.74534 l 0,-0.03232 c 0.517137,-0.420175 1.066596,-0.87267 1.583733,-1.325166 l 0.03232,0 c 0.161605,0.09697 0.355532,0.193928 0.517136,0.290891 0.290891,0.129284 0.614101,0.258568 0.904991,0.32321 0.129284,0.03232 0.226248,0.06465 0.32321,0.09697 0.06465,0.678743 0.129285,1.389807 0.226249,2.100871 0.290889,0.03232 0.581779,0.06465 0.90499,0.06465 0.06465,0 0.258568,0 0.484817,0 0.355532,0 0.711064,-0.03232 1.066595,-0.09697 0.06465,-0.678742 0.129285,-1.389807 0.193926,-2.10087 0.09697,-0.03232 0.193927,-0.06465 0.29089,-0.09697 l 0,0 c 0.290891,-0.06464 0.549459,-0.161605 0.808028,-0.290889 0.226248,-0.09697 0.452495,-0.226248 0.678743,-0.387854 0,0.03232 0,0.03232 0.03232,0.03232 0.517137,0.452495 1.066596,0.904989 1.616054,1.325164 0.09697,-0.06465 0.193927,-0.129284 0.323212,-0.226247 0.193926,-0.161606 0.387852,-0.355532 0.549458,-0.549459 0.29089,-0.290889 0.58178,-0.614101 0.840348,-0.969633 -0.452495,-0.549459 -0.90499,-1.098917 -1.357486,-1.616054 0,-0.03232 0,-0.03232 0,-0.03232 0.09697,-0.161605 0.193927,-0.355531 0.29089,-0.549457 0.09696,-0.258569 0.226248,-0.517138 0.29089,-0.775707 0,-0.03232 0,-0.06465 0.03232,-0.06465 0,-0.129285 0.03232,-0.226248 0.06465,-0.290891 0.711065,-0.06465 1.422129,-0.129284 2.100872,-0.193926 0.06464,-0.323211 0.06464,-0.646422 0.09697,-0.969632 0,-0.09697 0,-0.193927 0,-0.29089 0,-0.06465 0,-0.161606 0,-0.258569 -0.03232,-0.323212 -0.03232,-0.646422 -0.09697,-0.969633 -0.678743,-0.06465 -1.389807,-0.129284 -2.100872,-0.193927 -0.03232,-0.09697 -0.06465,-0.193926 -0.06465,-0.290889 -0.09697,-0.29089 -0.193927,-0.58178 -0.323212,-0.872669 -0.09697,-0.193927 -0.226247,-0.420175 -0.32321,-0.614102 0.420173,-0.517136 0.872669,-1.066595 1.325164,-1.616054 z m -8.629731,2.682651 c 0.581779,-0.614101 1.292844,-0.904991 2.100871,-0.87267 0.840348,-0.03232 1.519091,0.258569 2.133192,0.87267 0.581779,0.581779 0.872669,1.292843 0.872669,2.10087 0,0.840348 -0.29089,1.519092 -0.872669,2.133192 -0.614101,0.58178 -1.292844,0.87267 -2.133192,0.87267 -0.808027,0 -1.519092,-0.29089 -2.100871,-0.87267 -0.581779,-0.6141 -0.872669,-1.292844 -0.872669,-2.133192 0,-0.808027 0.29089,-1.519091 0.872669,-2.10087 z"/>
  </g><g class="part-end" clip-path="url(#input-cpee-1767220609313-endclip)" transform="translate(94.8293685913086,0)">
    <rect x="1" y="1" width="28" height="28" rx="4" class="execstyle colorstyle stand"/>
  </g><g class="part-middle" transform="translate(27,0)" clip-path="url(#input-cpee-1767220609313-ele-a17)">
    <rect x="0" y="1" width="220" height="28" class="standwithout colorstyle"/>
    <line x1="0" y1="1" x2="220" y2="1" class="standline execstyle"/>
    <line x1="0" y1="29" x2="220" y2="29" class="standline execstyle"/>
    <text transform="translate(0,20)" class="label"><tspan xmlns="http://www.w3.org/2000/svg" x="0" dy="-8">Slice</tspan><tspan xmlns="http://www.w3.org/2000/svg" x="0" dy="12">Mozzarella (a9)</tspan></text>
  </g></g></g></g><g xmlns="http://www.w3.org/2000/svg" class="element primitive task-clickable" element-row="13" element-type="call" element-id="a19" element-endpoint="" element-alt_id="a11"><g transform="translate(104.4,530.4)"><g xmlns="http://www.w3.org/2000/svg" class="activities"><title xmlns="http://www.w3.org/2000/svg">Assemble Lasagne Layer (a11)</title><g class="part-start" clip-path="url(#input-cpee-1767220609313-startclip)">
    <rect x="1" y="1" width="38" height="28" rx="4" class="execstyle colorstyle stand"/>
    <path class="normal" style="fill:#000000;" d="m 21.561187,10.184155 c 0,-0.03232 0,-0.03232 0,-0.03232 C 21.076371,9.5054099 20.494591,8.9559512 19.815848,8.4388133 l 0,0.032323 C 19.266389,8.891311 18.71693,9.3438064 18.199794,9.7963017 17.973545,9.6670167 17.779619,9.5700535 17.585693,9.4730903 17.327124,9.3438064 17.068556,9.2145213 16.777665,9.1498799 16.680695,9.1175569 16.583739,9.0852339 16.486775,9.0852339 16.422135,8.3741695 16.357491,7.6631063 16.260528,6.952042 15.937318,6.887396 15.614106,6.887396 15.258574,6.855073 c -0.09697,0 -0.193926,0 -0.258569,0 -0.09697,0 -0.193925,0 -0.258568,0 -0.323211,0.032323 -0.614101,0.032323 -0.90499,0.096969 -0.09697,0.6787425 -0.161606,1.3898068 -0.193927,2.1008712 -0.129284,0 -0.226248,0.032323 -0.355532,0.064646 -0.03232,0 -0.06465,0 -0.09697,0.032323 -0.258568,0.064646 -0.517136,0.1939264 -0.775704,0.3232103 -0.226249,0.096969 -0.420175,0.1939264 -0.614102,0.3232114 -0.549458,-0.4524953 -1.066595,-0.87267 -1.616054,-1.3251654 0,0 0,0 -0.03232,-0.032323 C 10.022552,8.5357845 9.8932693,8.6327419 9.7963053,8.7297051 9.5700583,8.8913109 9.3761314,9.0852373 9.2145262,9.2791637 8.9236366,9.5377327 8.6973883,9.8609431 8.4388194,10.184155 c 0,0 0,0 0.032323,0 0.4201747,0.549459 0.87267,1.066596 1.325166,1.616054 -0.129285,0.193927 -0.258569,0.420175 -0.355533,0.614101 -0.129285,0.258569 -0.226248,0.549459 -0.2908894,0.808028 -0.064646,0.129284 -0.096969,0.258568 -0.096969,0.355531 -0.7110644,0.06465 -1.4221288,0.129285 -2.1008713,0.226248 -0.064646,0.323211 -0.096969,0.646422 -0.096969,1.001954 0,0.484816 0.032323,0.969632 0.1292839,1.422128 0.6787437,0.06465 1.3574862,0.129284 2.0685505,0.193926 0,0.129284 0.032323,0.258569 0.096969,0.355532 0.064646,0.29089 0.1616049,0.549459 0.2908899,0.840349 0.129284,0.226247 0.2262471,0.452495 0.387853,0.646421 -0.452496,0.549459 -0.9049912,1.066596 -1.3251647,1.616054 0.484816,0.678744 1.0665957,1.260523 1.7453387,1.74534 l 0,-0.03232 c 0.517137,-0.420175 1.066596,-0.87267 1.583733,-1.325166 l 0.03232,0 c 0.161605,0.09697 0.355532,0.193928 0.517136,0.290891 0.290891,0.129284 0.614101,0.258568 0.904991,0.32321 0.129284,0.03232 0.226248,0.06465 0.32321,0.09697 0.06465,0.678743 0.129285,1.389807 0.226249,2.100871 0.290889,0.03232 0.581779,0.06465 0.90499,0.06465 0.06465,0 0.258568,0 0.484817,0 0.355532,0 0.711064,-0.03232 1.066595,-0.09697 0.06465,-0.678742 0.129285,-1.389807 0.193926,-2.10087 0.09697,-0.03232 0.193927,-0.06465 0.29089,-0.09697 l 0,0 c 0.290891,-0.06464 0.549459,-0.161605 0.808028,-0.290889 0.226248,-0.09697 0.452495,-0.226248 0.678743,-0.387854 0,0.03232 0,0.03232 0.03232,0.03232 0.517137,0.452495 1.066596,0.904989 1.616054,1.325164 0.09697,-0.06465 0.193927,-0.129284 0.323212,-0.226247 0.193926,-0.161606 0.387852,-0.355532 0.549458,-0.549459 0.29089,-0.290889 0.58178,-0.614101 0.840348,-0.969633 -0.452495,-0.549459 -0.90499,-1.098917 -1.357486,-1.616054 0,-0.03232 0,-0.03232 0,-0.03232 0.09697,-0.161605 0.193927,-0.355531 0.29089,-0.549457 0.09696,-0.258569 0.226248,-0.517138 0.29089,-0.775707 0,-0.03232 0,-0.06465 0.03232,-0.06465 0,-0.129285 0.03232,-0.226248 0.06465,-0.290891 0.711065,-0.06465 1.422129,-0.129284 2.100872,-0.193926 0.06464,-0.323211 0.06464,-0.646422 0.09697,-0.969632 0,-0.09697 0,-0.193927 0,-0.29089 0,-0.06465 0,-0.161606 0,-0.258569 -0.03232,-0.323212 -0.03232,-0.646422 -0.09697,-0.969633 -0.678743,-0.06465 -1.389807,-0.129284 -2.100872,-0.193927 -0.03232,-0.09697 -0.06465,-0.193926 -0.06465,-0.290889 -0.09697,-0.29089 -0.193927,-0.58178 -0.323212,-0.872669 -0.09697,-0.193927 -0.226247,-0.420175 -0.32321,-0.614102 0.420173,-0.517136 0.872669,-1.066595 1.325164,-1.616054 z m -8.629731,2.682651 c 0.581779,-0.614101 1.292844,-0.904991 2.100871,-0.87267 0.840348,-0.03232 1.519091,0.258569 2.133192,0.87267 0.581779,0.581779 0.872669,1.292843 0.872669,2.10087 0,0.840348 -0.29089,1.519092 -0.872669,2.133192 -0.614101,0.58178 -1.292844,0.87267 -2.133192,0.87267 -0.808027,0 -1.519092,-0.29089 -2.100871,-0.87267 -0.581779,-0.6141 -0.872669,-1.292844 -0.872669,-2.133192 0,-0.808027 0.29089,-1.519091 0.872669,-2.10087 z"/>
  </g><g class="part-end" clip-path="url(#input-cpee-1767220609313-endclip)" transform="translate(113.3511962890625,0)">
    <rect x="1" y="1" width="28" height="28" rx="4" class="execstyle colorstyle stand"/>
  </g><g class="part-middle" transform="translate(27,0)" clip-path="url(#input-cpee-1767220609313-ele-a19)">
    <rect x="0" y="1" width="220" height="28" class="standwithout colorstyle"/>
    <line x1="0" y1="1" x2="220" y2="1" class="standline execstyle"/>
    <line x1="0" y1="29" x2="220" y2="29" class="standline execstyle"/>
    <text transform="translate(0,20)" class="label"><tspan xmlns="http://www.w3.org/2000/svg" x="0" dy="-8">Assemble Lasagne</tspan><tspan xmlns="http://www.w3.org/2000/svg" x="0" dy="12">Layer (a11)</tspan></text>
  </g></g></g></g></g><g xmlns="http://www.w3.org/2000/svg" class="element complex task-clickable" element-row="8" element-type="loop_head" element-id="loop_0" element-alt_id="gw2s"><g transform="translate(64.4,330.4)"><g xmlns="http://www.w3.org/2000/svg" class="activities"><title xmlns="http://www.w3.org/2000/svg">More Layers</title><g class="part-start">
    <rect transform="rotate(45,14,12)" x="7" y="3" width="21" height="21" class="colorstyle stand"/>
    <line x1="10.5" y1="20.5" x2="20.5" y2="10.5" class="stand"/>
    <line x1="10.5" y1="10.5" x2="20.5" y2="20.5" class="stand"/>
  </g><g class="part-middle" transform="translate(28,0)">
    <text transform="translate(5,15)" class="label standalone">More Layers</text>
  </g></g></g></g><g xmlns="http://www.w3.org/2000/svg" class="element primitive task-clickable" element-row="14" element-type="call" element-id="a23" element-endpoint="" element-alt_id="a17"><g transform="translate(64.4,570.4)"><g xmlns="http://www.w3.org/2000/svg" class="activities"><title xmlns="http://www.w3.org/2000/svg">Bake Lasagne (a17)</title><g class="part-start" clip-path="url(#input-cpee-1767220609313-startclip)">
    <rect x="1" y="1" width="38" height="28" rx="4" class="execstyle colorstyle stand"/>
    <path class="normal" style="fill:#000000;" d="m 21.561187,10.184155 c 0,-0.03232 0,-0.03232 0,-0.03232 C 21.076371,9.5054099 20.494591,8.9559512 19.815848,8.4388133 l 0,0.032323 C 19.266389,8.891311 18.71693,9.3438064 18.199794,9.7963017 17.973545,9.6670167 17.779619,9.5700535 17.585693,9.4730903 17.327124,9.3438064 17.068556,9.2145213 16.777665,9.1498799 16.680695,9.1175569 16.583739,9.0852339 16.486775,9.0852339 16.422135,8.3741695 16.357491,7.6631063 16.260528,6.952042 15.937318,6.887396 15.614106,6.887396 15.258574,6.855073 c -0.09697,0 -0.193926,0 -0.258569,0 -0.09697,0 -0.193925,0 -0.258568,0 -0.323211,0.032323 -0.614101,0.032323 -0.90499,0.096969 -0.09697,0.6787425 -0.161606,1.3898068 -0.193927,2.1008712 -0.129284,0 -0.226248,0.032323 -0.355532,0.064646 -0.03232,0 -0.06465,0 -0.09697,0.032323 -0.258568,0.064646 -0.517136,0.1939264 -0.775704,0.3232103 -0.226249,0.096969 -0.420175,0.1939264 -0.614102,0.3232114 -0.549458,-0.4524953 -1.066595,-0.87267 -1.616054,-1.3251654 0,0 0,0 -0.03232,-0.032323 C 10.022552,8.5357845 9.8932693,8.6327419 9.7963053,8.7297051 9.5700583,8.8913109 9.3761314,9.0852373 9.2145262,9.2791637 8.9236366,9.5377327 8.6973883,9.8609431 8.4388194,10.184155 c 0,0 0,0 0.032323,0 0.4201747,0.549459 0.87267,1.066596 1.325166,1.616054 -0.129285,0.193927 -0.258569,0.420175 -0.355533,0.614101 -0.129285,0.258569 -0.226248,0.549459 -0.2908894,0.808028 -0.064646,0.129284 -0.096969,0.258568 -0.096969,0.355531 -0.7110644,0.06465 -1.4221288,0.129285 -2.1008713,0.226248 -0.064646,0.323211 -0.096969,0.646422 -0.096969,1.001954 0,0.484816 0.032323,0.969632 0.1292839,1.422128 0.6787437,0.06465 1.3574862,0.129284 2.0685505,0.193926 0,0.129284 0.032323,0.258569 0.096969,0.355532 0.064646,0.29089 0.1616049,0.549459 0.2908899,0.840349 0.129284,0.226247 0.2262471,0.452495 0.387853,0.646421 -0.452496,0.549459 -0.9049912,1.066596 -1.3251647,1.616054 0.484816,0.678744 1.0665957,1.260523 1.7453387,1.74534 l 0,-0.03232 c 0.517137,-0.420175 1.066596,-0.87267 1.583733,-1.325166 l 0.03232,0 c 0.161605,0.09697 0.355532,0.193928 0.517136,0.290891 0.290891,0.129284 0.614101,0.258568 0.904991,0.32321 0.129284,0.03232 0.226248,0.06465 0.32321,0.09697 0.06465,0.678743 0.129285,1.389807 0.226249,2.100871 0.290889,0.03232 0.581779,0.06465 0.90499,0.06465 0.06465,0 0.258568,0 0.484817,0 0.355532,0 0.711064,-0.03232 1.066595,-0.09697 0.06465,-0.678742 0.129285,-1.389807 0.193926,-2.10087 0.09697,-0.03232 0.193927,-0.06465 0.29089,-0.09697 l 0,0 c 0.290891,-0.06464 0.549459,-0.161605 0.808028,-0.290889 0.226248,-0.09697 0.452495,-0.226248 0.678743,-0.387854 0,0.03232 0,0.03232 0.03232,0.03232 0.517137,0.452495 1.066596,0.904989 1.616054,1.325164 0.09697,-0.06465 0.193927,-0.129284 0.323212,-0.226247 0.193926,-0.161606 0.387852,-0.355532 0.549458,-0.549459 0.29089,-0.290889 0.58178,-0.614101 0.840348,-0.969633 -0.452495,-0.549459 -0.90499,-1.098917 -1.357486,-1.616054 0,-0.03232 0,-0.03232 0,-0.03232 0.09697,-0.161605 0.193927,-0.355531 0.29089,-0.549457 0.09696,-0.258569 0.226248,-0.517138 0.29089,-0.775707 0,-0.03232 0,-0.06465 0.03232,-0.06465 0,-0.129285 0.03232,-0.226248 0.06465,-0.290891 0.711065,-0.06465 1.422129,-0.129284 2.100872,-0.193926 0.06464,-0.323211 0.06464,-0.646422 0.09697,-0.969632 0,-0.09697 0,-0.193927 0,-0.29089 0,-0.06465 0,-0.161606 0,-0.258569 -0.03232,-0.323212 -0.03232,-0.646422 -0.09697,-0.969633 -0.678743,-0.06465 -1.389807,-0.129284 -2.100872,-0.193927 -0.03232,-0.09697 -0.06465,-0.193926 -0.06465,-0.290889 -0.09697,-0.29089 -0.193927,-0.58178 -0.323212,-0.872669 -0.09697,-0.193927 -0.226247,-0.420175 -0.32321,-0.614102 0.420173,-0.517136 0.872669,-1.066595 1.325164,-1.616054 z m -8.629731,2.682651 c 0.581779,-0.614101 1.292844,-0.904991 2.100871,-0.87267 0.840348,-0.03232 1.519091,0.258569 2.133192,0.87267 0.581779,0.581779 0.872669,1.292843 0.872669,2.10087 0,0.840348 -0.29089,1.519092 -0.872669,2.133192 -0.614101,0.58178 -1.292844,0.87267 -2.133192,0.87267 -0.808027,0 -1.519092,-0.29089 -2.100871,-0.87267 -0.581779,-0.6141 -0.872669,-1.292844 -0.872669,-2.133192 0,-0.808027 0.29089,-1.519091 0.872669,-2.10087 z"/>
  </g><g class="part-end" clip-path="url(#input-cpee-1767220609313-endclip)" transform="translate(85.32540130615234,0)">
    <rect x="1" y="1" width="28" height="28" rx="4" class="execstyle colorstyle stand"/>
  </g><g class="part-middle" transform="translate(27,0)" clip-path="url(#input-cpee-1767220609313-ele-a23)">
    <rect x="0" y="1" width="220" height="28" class="standwithout colorstyle"/>
    <line x1="0" y1="1" x2="220" y2="1" class="standline execstyle"/>
    <line x1="0" y1="29" x2="220" y2="29" class="standline execstyle"/>
    <text transform="translate(0,20)" class="label"><tspan xmlns="http://www.w3.org/2000/svg" x="0" dy="-8">Bake Lasagne</tspan><tspan xmlns="http://www.w3.org/2000/svg" x="0" dy="12">(a17)</tspan></text>
  </g></g></g></g><g xmlns="http://www.w3.org/2000/svg" class="group" id="input-cpee-1767220609313-group-undefined"><g xmlns="http://www.w3.org/2000/svg" class="group"><g xmlns="http://www.w3.org/2000/svg" class="element primitive task-clickable" element-row="17" element-type="call" element-id="a27" element-endpoint="" element-alt_id="a21"><g transform="translate(104.4,690.4)"><g xmlns="http://www.w3.org/2000/svg" class="activities"><title xmlns="http://www.w3.org/2000/svg">Cool Lasagne (a21)</title><g class="part-start" clip-path="url(#input-cpee-1767220609313-startclip)">
    <rect x="1" y="1" width="38" height="28" rx="4" class="execstyle colorstyle stand"/>
    <path class="normal" style="fill:#000000;" d="m 21.561187,10.184155 c 0,-0.03232 0,-0.03232 0,-0.03232 C 21.076371,9.5054099 20.494591,8.9559512 19.815848,8.4388133 l 0,0.032323 C 19.266389,8.891311 18.71693,9.3438064 18.199794,9.7963017 17.973545,9.6670167 17.779619,9.5700535 17.585693,9.4730903 17.327124,9.3438064 17.068556,9.2145213 16.777665,9.1498799 16.680695,9.1175569 16.583739,9.0852339 16.486775,9.0852339 16.422135,8.3741695 16.357491,7.6631063 16.260528,6.952042 15.937318,6.887396 15.614106,6.887396 15.258574,6.855073 c -0.09697,0 -0.193926,0 -0.258569,0 -0.09697,0 -0.193925,0 -0.258568,0 -0.323211,0.032323 -0.614101,0.032323 -0.90499,0.096969 -0.09697,0.6787425 -0.161606,1.3898068 -0.193927,2.1008712 -0.129284,0 -0.226248,0.032323 -0.355532,0.064646 -0.03232,0 -0.06465,0 -0.09697,0.032323 -0.258568,0.064646 -0.517136,0.1939264 -0.775704,0.3232103 -0.226249,0.096969 -0.420175,0.1939264 -0.614102,0.3232114 -0.549458,-0.4524953 -1.066595,-0.87267 -1.616054,-1.3251654 0,0 0,0 -0.03232,-0.032323 C 10.022552,8.5357845 9.8932693,8.6327419 9.7963053,8.7297051 9.5700583,8.8913109 9.3761314,9.0852373 9.2145262,9.2791637 8.9236366,9.5377327 8.6973883,9.8609431 8.4388194,10.184155 c 0,0 0,0 0.032323,0 0.4201747,0.549459 0.87267,1.066596 1.325166,1.616054 -0.129285,0.193927 -0.258569,0.420175 -0.355533,0.614101 -0.129285,0.258569 -0.226248,0.549459 -0.2908894,0.808028 -0.064646,0.129284 -0.096969,0.258568 -0.096969,0.355531 -0.7110644,0.06465 -1.4221288,0.129285 -2.1008713,0.226248 -0.064646,0.323211 -0.096969,0.646422 -0.096969,1.001954 0,0.484816 0.032323,0.969632 0.1292839,1.422128 0.6787437,0.06465 1.3574862,0.129284 2.0685505,0.193926 0,0.129284 0.032323,0.258569 0.096969,0.355532 0.064646,0.29089 0.1616049,0.549459 0.2908899,0.840349 0.129284,0.226247 0.2262471,0.452495 0.387853,0.646421 -0.452496,0.549459 -0.9049912,1.066596 -1.3251647,1.616054 0.484816,0.678744 1.0665957,1.260523 1.7453387,1.74534 l 0,-0.03232 c 0.517137,-0.420175 1.066596,-0.87267 1.583733,-1.325166 l 0.03232,0 c 0.161605,0.09697 0.355532,0.193928 0.517136,0.290891 0.290891,0.129284 0.614101,0.258568 0.904991,0.32321 0.129284,0.03232 0.226248,0.06465 0.32321,0.09697 0.06465,0.678743 0.129285,1.389807 0.226249,2.100871 0.290889,0.03232 0.581779,0.06465 0.90499,0.06465 0.06465,0 0.258568,0 0.484817,0 0.355532,0 0.711064,-0.03232 1.066595,-0.09697 0.06465,-0.678742 0.129285,-1.389807 0.193926,-2.10087 0.09697,-0.03232 0.193927,-0.06465 0.29089,-0.09697 l 0,0 c 0.290891,-0.06464 0.549459,-0.161605 0.808028,-0.290889 0.226248,-0.09697 0.452495,-0.226248 0.678743,-0.387854 0,0.03232 0,0.03232 0.03232,0.03232 0.517137,0.452495 1.066596,0.904989 1.616054,1.325164 0.09697,-0.06465 0.193927,-0.129284 0.323212,-0.226247 0.193926,-0.161606 0.387852,-0.355532 0.549458,-0.549459 0.29089,-0.290889 0.58178,-0.614101 0.840348,-0.969633 -0.452495,-0.549459 -0.90499,-1.098917 -1.357486,-1.616054 0,-0.03232 0,-0.03232 0,-0.03232 0.09697,-0.161605 0.193927,-0.355531 0.29089,-0.549457 0.09696,-0.258569 0.226248,-0.517138 0.29089,-0.775707 0,-0.03232 0,-0.06465 0.03232,-0.06465 0,-0.129285 0.03232,-0.226248 0.06465,-0.290891 0.711065,-0.06465 1.422129,-0.129284 2.100872,-0.193926 0.06464,-0.323211 0.06464,-0.646422 0.09697,-0.969632 0,-0.09697 0,-0.193927 0,-0.29089 0,-0.06465 0,-0.161606 0,-0.258569 -0.03232,-0.323212 -0.03232,-0.646422 -0.09697,-0.969633 -0.678743,-0.06465 -1.389807,-0.129284 -2.100872,-0.193927 -0.03232,-0.09697 -0.06465,-0.193926 -0.06465,-0.290889 -0.09697,-0.29089 -0.193927,-0.58178 -0.323212,-0.872669 -0.09697,-0.193927 -0.226247,-0.420175 -0.32321,-0.614102 0.420173,-0.517136 0.872669,-1.066595 1.325164,-1.616054 z m -8.629731,2.682651 c 0.581779,-0.614101 1.292844,-0.904991 2.100871,-0.87267 0.840348,-0.03232 1.519091,0.258569 2.133192,0.87267 0.581779,0.581779 0.872669,1.292843 0.872669,2.10087 0,0.840348 -0.29089,1.519092 -0.872669,2.133192 -0.614101,0.58178 -1.292844,0.87267 -2.133192,0.87267 -0.808027,0 -1.519092,-0.29089 -2.100871,-0.87267 -0.581779,-0.6141 -0.872669,-1.292844 -0.872669,-2.133192 0,-0.808027 0.29089,-1.519091 0.872669,-2.10087 z"/>
  </g><g class="part-end" clip-path="url(#input-cpee-1767220609313-endclip)" transform="translate(83.87698364257812,0)">
    <rect x="1" y="1" width="28" height="28" rx="4" class="execstyle colorstyle stand"/>
  </g><g class="part-middle" transform="translate(27,0)" clip-path="url(#input-cpee-1767220609313-ele-a27)">
    <rect x="0" y="1" width="220" height="28" class="standwithout colorstyle"/>
    <line x1="0" y1="1" x2="220" y2="1" class="standline execstyle"/>
    <line x1="0" y1="29" x2="220" y2="29" class="standline execstyle"/>
    <text transform="translate(0,20)" class="label"><tspan xmlns="http://www.w3.org/2000/svg" x="0" dy="-8">Cool Lasagne</tspan><tspan xmlns="http://www.w3.org/2000/svg" x="0" dy="12">(a21)</tspan></text>
  </g></g></g></g></g><g xmlns="http://www.w3.org/2000/svg" class="element complex task-clickable" element-row="16" element-type="alternative" element-id="alternative_0"><g transform="translate(104.4,650.4)"><g xmlns="http://www.w3.org/2000/svg" class="activities"><title xmlns="http://www.w3.org/2000/svg">Yes</title><g class="part-start">
    <rect x="11" y="6" width="9" height="18" rx="0" class="white"/>
    <path class="stand" d="M 11,5 C  2,9  2,21 11,25 M 20,5 C 29,9 29,21 20,25" style="stroke-dasharray:1,4;"/>
    <line x1="15.6" y1="4" x2="15.6" y2="27" class="edge"/>
  </g><g class="part-middle" transform="translate(30,0)">
    <text transform="translate(0,20)" class="label standalone">Yes</text>
  </g></g></g></g><g xmlns="http://www.w3.org/2000/svg" class="group"/><g xmlns="http://www.w3.org/2000/svg" class="element complex task-clickable" element-row="16" element-type="alternative" element-id="alternative_1"><g transform="translate(229.27698364257813,650.4)"><g xmlns="http://www.w3.org/2000/svg" class="activities"><title xmlns="http://www.w3.org/2000/svg">No</title><g class="part-start">
    <rect x="11" y="6" width="9" height="18" rx="0" class="white"/>
    <path class="stand" d="M 11,5 C  2,9  2,21 11,25 M 20,5 C 29,9 29,21 20,25" style="stroke-dasharray:1,4;"/>
    <line x1="15.6" y1="4" x2="15.6" y2="27" class="edge"/>
  </g><g class="part-middle" transform="translate(30,0)">
    <text transform="translate(0,20)" class="label standalone">No</text>
  </g></g></g></g></g><g xmlns="http://www.w3.org/2000/svg" class="element complex task-clickable" element-row="15" element-type="choose_exclusive" element-id="choose_0" element-alt_id="gw3s"><g transform="translate(64.4,610.4)"><g xmlns="http://www.w3.org/2000/svg" class="activities"><title xmlns="http://www.w3.org/2000/svg"/><g class="part-normal">
    <rect transform="rotate(45,14,12)" x="7" y="3" width="21" height="21" class="colorstyle stand"/>
    <line x1="10.5" y1="20.5" x2="20.5" y2="10.5" class="stand"/>
    <line x1="10.5" y1="10.5" x2="20.5" y2="20.5" class="stand"/>
  </g></g></g><g xmlns="http://www.w3.org/2000/svg" class="element primitive task-clickable" element-row="18" element-type="choose_exclusive_finish" element-id="choose_0"><g transform="translate(64.4,730.4)"><g xmlns="http://www.w3.org/2000/svg" class="activities"><title xmlns="http://www.w3.org/2000/svg"/><rect transform="rotate(45,14,12)" x="7" y="3" width="21" height="21" class="colorstyle stand"/><line x1="10.5" y1="20.5" x2="20.5" y2="10.5" class="stand"/><line x1="10.5" y1="10.5" x2="20.5" y2="20.5" class="stand"/></g></g></g></g></g><g xmlns="http://www.w3.org/2000/svg" class="element complex task-clickable" element-row="2" element-type="loop_head" element-id="loop_1"><g transform="translate(24.4,90.4)"><g xmlns="http://www.w3.org/2000/svg" class="activities"><title xmlns="http://www.w3.org/2000/svg">true</title><g class="part-start">
    <rect transform="rotate(45,14,12)" x="7" y="3" width="21" height="21" class="colorstyle stand"/>
    <line x1="10.5" y1="20.5" x2="20.5" y2="10.5" class="stand"/>
    <line x1="10.5" y1="10.5" x2="20.5" y2="20.5" class="stand"/>
  </g><g class="part-middle" transform="translate(28,0)">
    <text transform="translate(5,15)" class="label standalone">true</text>
  </g></g></g></g><g xmlns="http://www.w3.org/2000/svg" class="element primitive task-clickable" element-row="19" element-type="end" element-id="undefined"><g transform="translate(24.4,770.4)"><g xmlns="http://www.w3.org/2000/svg" class="activities"><title xmlns="http://www.w3.org/2000/svg"/><circle cx="15" cy="15" r="13" class="colorstyle standfat" style="stroke-width: 5;"/></g></g></g></g></svg>